<svg width="203" height="48" viewBox="0 0 203 48" fill="none" xmlns="http://www.w3.org/2000/svg">
<g clip-path="url(#clip0_2628_34364)">
<path d="M70.2607 0.0668945V38.3937H89.798V47.9989H60.4628V0.0668945H70.2607Z" fill="white"/>
<path d="M118.673 0.0668945V38.3937H138.205V47.9989H108.87V0.0668945H118.673Z" fill="white"/>
<path d="M176.453 17.5362L187.19 0.0668945H176.059L171.472 8.33356L176.453 17.5362Z" fill="white"/>
<path d="M163.797 8.35448L159.194 0.0668945H148.095L162.746 26.5035V47.9989H172.512V24.2081L163.797 8.35448Z" fill="white"/>
<path d="M18.1719 31.2303L10.3953 47.9989H0L20.9614 2.32572L22.0281 0.0668945L23.0575 2.29435L27.0364 10.9793L21.9908 22.8434L18.1719 31.2303ZM30.8287 19.2774L25.8204 31.178V31.2303H25.7777L25.5483 31.7532L21.7721 40.7832H30.242L30.3913 41.1388L33.5489 47.9989H43.9816L30.8287 19.2774Z" fill="white"/>
<path d="M191.815 3.95855L192.545 3.89581C192.564 4.14532 192.647 4.38618 192.785 4.59646C192.932 4.79583 193.134 4.95002 193.367 5.04091C193.649 5.15493 193.952 5.21184 194.257 5.20823C194.523 5.21304 194.786 5.17052 195.036 5.08274C195.235 5.0069 195.407 4.87613 195.532 4.70627C195.637 4.56516 195.693 4.3947 195.692 4.21999C195.697 4.05194 195.643 3.88735 195.537 3.75463C195.395 3.59665 195.21 3.48076 195.004 3.41999C194.665 3.30832 194.319 3.21579 193.969 3.14287C193.584 3.06523 193.208 2.94599 192.849 2.78731C192.599 2.66988 192.386 2.48942 192.231 2.26444C192.099 2.05577 192.032 1.81416 192.039 1.56901C192.037 1.2819 192.124 1.0011 192.289 0.763784C192.465 0.504684 192.718 0.30552 193.015 0.193849C193.354 0.0602116 193.716 -0.00556909 194.081 0.000384912C194.468 -0.00583938 194.853 0.0634802 195.212 0.204306C195.522 0.322659 195.787 0.532847 195.97 0.805614C196.155 1.07003 196.262 1.37945 196.279 1.69973L195.543 1.75725C195.534 1.60169 195.494 1.44942 195.424 1.30936C195.354 1.1693 195.257 1.04426 195.137 0.941561C194.844 0.737917 194.488 0.640007 194.129 0.664437C193.771 0.63576 193.413 0.723991 193.111 0.915418C193.013 0.98409 192.934 1.0744 192.879 1.17894C192.825 1.28347 192.796 1.39924 192.796 1.51672C192.791 1.61473 192.809 1.71254 192.848 1.803C192.886 1.89346 192.945 1.9743 193.02 2.0396C193.374 2.2492 193.768 2.38617 194.177 2.44221C194.616 2.5281 195.046 2.65055 195.463 2.80823C195.762 2.92999 196.02 3.13095 196.21 3.38862C196.364 3.62552 196.442 3.90244 196.434 4.18339C196.433 4.48805 196.342 4.78601 196.172 5.04091C195.983 5.31572 195.718 5.53307 195.409 5.66836C195.057 5.82001 194.675 5.89493 194.289 5.88797C193.839 5.90205 193.391 5.82553 192.972 5.66313C192.631 5.52415 192.34 5.28948 192.135 4.98862C191.93 4.68212 191.819 4.32477 191.815 3.95855V3.95855Z" fill="white"/>
<path d="M197.463 5.78923V0.100342H198.615L200.012 4.12649C200.14 4.50296 200.231 4.78008 200.29 4.96832C200.354 4.76439 200.455 4.44544 200.599 4.05851L201.986 0.100342H203.02V5.78923H202.279V1.04675L200.594 5.81015H199.9L198.199 0.942172V5.78923H197.463Z" fill="white"/>
</g>
<defs>
<clipPath id="clip0_2628_34364">
<rect width="203" height="48" fill="white"/>
</clipPath>
</defs>
</svg>
