<svg width="200" height="72" viewBox="0 0 200 72" fill="none" xmlns="http://www.w3.org/2000/svg">
<g clip-path="url(#clip0_2933_38620)">
<path d="M71.9765 34.1501C70.4671 34.708 68.8632 34.9684 67.2539 34.917C62.4824 34.917 59.3014 32.0439 59.3014 27.3203C59.2384 25.5622 59.6212 23.8165 60.4144 22.2442C61.2077 20.672 62.3859 19.3237 63.8404 18.3236C65.789 17.041 68.0872 16.3864 70.4227 16.4487C71.7785 16.4072 73.1272 16.6607 74.3745 17.1913L73.31 20.2958C72.2792 19.8734 71.1698 19.6742 70.0556 19.7114C68.5663 19.6808 67.1128 20.1672 65.9448 21.0871C65.1375 21.8149 64.5001 22.7097 64.0774 23.7087C63.6547 24.7077 63.4569 25.7867 63.4978 26.8699C63.4336 27.5119 63.5129 28.1601 63.7302 28.768C63.9476 29.3759 64.2974 29.9283 64.7548 30.3857C65.2121 30.8431 65.7655 31.1941 66.3753 31.4134C66.985 31.6328 67.6361 31.715 68.2816 31.6543C69.446 31.6723 70.6036 31.4741 71.6951 31.07L71.9765 34.1501Z" fill="white"/>
<path d="M81.4706 34.9171C76.797 34.9171 74.1298 31.6179 74.1298 27.4543C74.0891 24.3185 75.2734 21.2894 77.4332 19.0054C79.2298 17.319 81.6195 16.4011 84.0888 16.4488C88.8359 16.4488 91.344 19.6263 91.344 23.8994C91.4218 27.006 90.2859 30.0215 88.1752 32.3118C87.2974 33.1636 86.2578 33.8327 85.1171 34.28C83.9764 34.7274 82.7576 34.944 81.5318 34.9171H81.4706ZM81.9967 31.7275C85.0921 31.7275 87.1964 27.3813 87.1964 24.009C87.1964 21.7811 86.4012 19.6263 83.526 19.6263C80.2961 19.6263 78.1917 23.9238 78.1917 27.3204C78.1917 29.8405 79.3418 31.7275 81.8621 31.7275H81.9967Z" fill="white"/>
<path d="M93.118 34.6249L96.5315 16.7409H101.034L103.407 23.5585C104.129 25.8351 104.631 27.6978 105.035 29.6456H105.12C105.243 27.4906 105.517 25.3468 105.94 23.2298L107.163 16.7288H110.76L107.335 34.6249H103.358L100.912 27.4786C100.216 25.4326 99.6282 23.3521 99.1497 21.2454H99.0763C98.8806 22.9985 98.4646 25.5186 97.9263 28.3552L96.7028 34.6249H93.118Z" fill="white"/>
<path d="M111.959 34.6249L115.373 16.7409H119.887L122.261 23.5585C122.971 25.8351 123.484 27.6978 123.888 29.6456H123.962C124.089 27.4904 124.367 25.3466 124.794 23.2298L126.017 16.7288H129.614L126.2 34.6127H122.224L119.777 27.4664C119.08 25.4221 118.496 23.3412 118.028 21.2332H117.942C117.759 22.9863 117.33 25.5064 116.792 28.343L115.569 34.6127L111.959 34.6249Z" fill="white"/>
<path d="M142.485 27.0039H136.111L135.291 31.3622H146.779L147.452 34.6249H130.813L134.251 16.741H144.895L144.259 20.0037H137.481L136.698 23.7899H143.133L142.485 27.0039Z" fill="white"/>
<path d="M170.955 16.741L169.01 27.0039C168.863 27.7046 168.789 28.4185 168.789 29.1343C168.769 29.48 168.824 29.826 168.949 30.1492C169.074 30.4723 169.267 30.7652 169.514 31.0083C169.762 31.2514 170.059 31.4392 170.386 31.559C170.712 31.6788 171.061 31.7279 171.408 31.7031C173.439 31.7031 174.735 30.3761 175.384 27.0647L177.354 16.741H181.195L179.25 26.8943C178.21 32.3118 175.837 34.9171 170.931 34.9171C167.26 34.9171 164.948 33.0058 164.948 29.2074C164.967 28.3896 165.057 27.5749 165.217 26.7725L167.113 16.8018L170.955 16.741Z" fill="white"/>
<path d="M181.648 30.4856C182.937 31.2316 184.402 31.6224 185.893 31.6178C187.362 31.6178 188.72 30.9361 188.72 29.5482C188.72 28.5134 187.937 27.8803 186.273 27.0038C184.389 25.9933 182.602 24.5689 182.602 22.2558C182.602 18.6035 185.759 16.4487 189.674 16.4487C191.128 16.3874 192.575 16.6887 193.883 17.3253L192.659 20.5027C191.622 19.9778 190.471 19.7145 189.307 19.7358C187.521 19.7358 186.579 20.6123 186.579 21.5984C186.579 22.5845 187.68 23.2906 189.197 24.1428C191.387 25.2872 192.745 26.7359 192.745 28.8908C192.745 32.8718 189.441 34.917 185.404 34.917C183.617 35.01 181.841 34.5872 180.29 33.6996L181.648 30.4856Z" fill="white"/>
<path d="M65.8469 49.2219H59.4727L58.6407 53.5803H69.6519V56.843H54.1628L57.5763 38.959H68.1838L67.5476 42.2217H60.843L60.0967 46.02H66.5198L65.8469 49.2219Z" fill="white"/>
<path d="M67.9513 56.843L71.3648 38.959H75.8794L78.2529 45.7887C78.9625 48.0653 79.4763 49.928 79.8801 51.8759H79.9535C80.0817 49.7207 80.3597 47.577 80.7855 45.46L82.0089 38.959H85.6059L82.1924 56.843H78.2162L75.7692 49.7088C75.0735 47.6599 74.4895 45.5751 74.0197 43.4635H73.934C73.7505 45.2165 73.3223 47.7366 72.784 50.5732L71.5605 56.843H67.9513Z" fill="white"/>
<path d="M97.3879 49.2219H91.0259L90.2062 53.5803H101.89L101.144 56.843H85.7161L89.1295 38.959H99.7614L99.1253 42.2217H92.3595L91.6132 46.02H98.0364L97.3879 49.2219Z" fill="white"/>
<path d="M102.893 39.2998C104.471 38.9767 106.079 38.8256 107.689 38.8494C109.329 38.7637 110.961 39.1213 112.412 39.8842C113.033 40.2242 113.548 40.7279 113.899 41.34C114.251 41.9522 114.427 42.649 114.406 43.3538C114.395 44.5272 113.987 45.6626 113.248 46.577C112.509 47.4914 111.482 48.1314 110.332 48.394V48.467C111.397 48.954 111.874 50.1105 112.033 51.7297C112.139 53.4448 112.372 55.1498 112.73 56.8307H108.778C108.5 55.4379 108.332 54.0253 108.277 52.6063C108.093 50.4392 107.347 49.7697 105.83 49.7697H104.606L103.273 56.8307H99.5289L102.893 39.2998ZM105.23 46.9209H106.809C108.888 46.9209 110.406 45.7035 110.406 43.9138C110.406 42.4895 109.182 41.8442 107.665 41.8442C107.164 41.8323 106.663 41.8772 106.172 41.9781L105.23 46.9209Z" fill="white"/>
<path d="M128.929 56.015C127.051 56.6477 125.087 56.9885 123.105 57.0255C120.938 57.1416 118.807 56.4419 117.135 55.0654C116.383 54.3584 115.791 53.4993 115.401 52.5459C115.011 51.5926 114.83 50.567 114.871 49.5383C114.844 47.9922 115.158 46.4589 115.792 45.0471C116.427 43.6354 117.365 42.3798 118.542 41.3694C120.811 39.6155 123.622 38.699 126.494 38.7763C128.114 38.7214 129.728 38.9905 131.241 39.5676L130.091 42.8059C128.888 42.2999 127.592 42.0471 126.286 42.0633C125.324 42.0154 124.363 42.1698 123.464 42.5167C122.566 42.8635 121.752 43.3949 121.074 44.0762C120.396 44.7574 119.871 45.5733 119.531 46.4704C119.192 47.3675 119.046 48.3258 119.104 49.2826C119.104 52.2775 120.891 53.7871 123.717 53.7871C124.392 53.811 125.065 53.7035 125.699 53.4706L126.409 49.7087H123.619L124.231 46.653H130.764L128.929 56.015Z" fill="white"/>
<path d="M133.089 56.843L134.483 49.5384L131.107 39.3851L130.96 38.959H135.071L136.221 43.5C136.563 44.9852 136.747 45.8253 136.906 46.7261C137.444 45.7766 138.007 44.7661 138.753 43.4635L141.445 38.959H146.033L138.325 49.441L136.93 56.8186L133.089 56.843Z" fill="white"/>
<path d="M197.198 16.7895C197.763 16.7896 198.314 16.9562 198.783 17.2685C199.252 17.5807 199.618 18.0244 199.833 18.5435C200.048 19.0625 200.104 19.6335 199.993 20.184C199.882 20.7346 199.609 21.24 199.21 21.6362C198.81 22.0324 198.301 22.3016 197.747 22.4097C197.193 22.5178 196.619 22.4599 196.099 22.2433C195.578 22.0268 195.134 21.6613 194.822 21.1932C194.51 20.7251 194.345 20.1755 194.348 19.614C194.344 19.2411 194.416 18.8714 194.558 18.5264C194.7 18.1815 194.91 17.8683 195.176 17.6052C195.441 17.3421 195.757 17.1344 196.104 16.9944C196.452 16.8543 196.824 16.7847 197.198 16.7895ZM197.198 17.3617C196.744 17.3423 196.295 17.4584 195.908 17.6951C195.522 17.9318 195.215 18.2783 195.027 18.69C194.84 19.1017 194.781 19.5597 194.857 20.0052C194.934 20.4506 195.142 20.8632 195.456 21.1897C195.77 21.5162 196.175 21.7417 196.619 21.8373C197.063 21.9328 197.526 21.894 197.947 21.7259C198.369 21.5577 198.73 21.2679 198.985 20.8937C199.239 20.5195 199.376 20.0781 199.376 19.6261C199.384 19.3347 199.334 19.0446 199.229 18.7726C199.123 18.5006 198.965 18.2521 198.762 18.0415C198.56 17.8308 198.317 17.6623 198.049 17.5456C197.78 17.429 197.491 17.3665 197.198 17.3617V17.3617ZM196.721 21.2575H196.048V18.1287C196.378 18.0586 196.714 18.0259 197.051 18.0313C197.433 17.9947 197.816 18.0846 198.14 18.287C198.252 18.3846 198.334 18.5103 198.379 18.651C198.424 18.7916 198.43 18.9417 198.396 19.0854C198.362 19.2291 198.29 19.361 198.187 19.4669C198.083 19.5728 197.953 19.6489 197.81 19.687V19.687C198.091 19.687 198.275 20.0035 198.324 20.454C198.346 20.719 198.4 20.9805 198.483 21.2331H197.798C197.695 20.9764 197.633 20.7053 197.614 20.4296C197.614 20.0888 197.357 19.9548 197.002 19.9548H196.648L196.721 21.2575ZM196.721 19.4435H197.015C197.418 19.4435 197.724 19.3218 197.724 18.9931C197.724 18.6644 197.541 18.5426 197.076 18.5426H196.648L196.721 19.4435Z" fill="white"/>
<path d="M165.192 16.7773L147.477 34.6126L145.446 32.056L160.617 16.7773H165.192Z" fill="white"/>
<path d="M146.155 16.7773L159.956 35.1239L163.883 35.0996L150.731 16.7773H146.155Z" fill="white"/>
<path d="M34.4283 22.1707C35.8231 24.6055 34.0001 28.2578 30.3542 30.3152C26.7083 32.3727 22.6341 32.1535 21.2394 29.7552C19.8446 27.3569 21.6676 23.6681 25.3013 21.6228C28.935 19.5775 33.0336 19.7723 34.4283 22.1707Z" fill="white"/>
<path d="M14.6449 42.2581C14.6449 42.2581 48.2657 20.941 55.0193 15C55.0193 15 51.2265 23.6437 40.9249 32.2753H51.7893L37.4136 45.2286C37.4136 45.2286 47.4582 45.2286 49.8929 46.3122C49.8929 46.3122 14.9141 61.9561 0 72.4746C0 72.4746 12.7363 59.8012 21.1537 52.9958C18.6237 52.8363 16.086 52.8363 13.556 52.9958C13.556 52.9958 25.4848 43.0129 29.8281 39.2267C29.8281 39.2876 18.1685 41.9903 14.6449 42.2581Z" fill="white"/>
</g>
<defs>
<clipPath id="clip0_2933_38620">
<rect width="200" height="72" fill="white"/>
</clipPath>
</defs>
</svg>
