<svg width="217" height="59" viewBox="0 0 217 59" fill="none" xmlns="http://www.w3.org/2000/svg">
<g clip-path="url(#clip0_2628_33865)">
<path d="M45.9236 12.1644C42.4143 10.535 38.662 9.35081 34.739 8.67651C34.2572 9.54094 33.6944 10.7036 33.3063 11.6285C29.1361 11.0061 25.0043 11.0061 20.9108 11.6285C20.5228 10.7036 19.9471 9.54094 19.461 8.67651C15.5339 9.35081 11.7772 10.5394 8.26792 12.1731C1.18962 22.788 -0.72919 33.1392 0.230217 43.3435C4.92492 46.8227 9.47465 48.9363 13.9476 50.3193C15.052 48.8109 16.037 47.2074 16.8855 45.5175C15.2694 44.9081 13.7216 44.1561 12.2591 43.283C12.6471 42.9978 13.0266 42.6995 13.3933 42.3927C22.3136 46.5332 32.0058 46.5332 40.8196 42.3927C41.1905 42.6995 41.57 42.9978 41.9538 43.283C40.4869 44.1604 38.9349 44.9124 37.3188 45.5219C38.1673 47.2074 39.1481 48.8152 40.2567 50.3236C44.734 48.9405 49.2879 46.8271 53.9826 43.3435C55.1083 31.5142 52.0596 21.258 45.9236 12.1644ZM18.1008 37.068C15.423 37.068 13.227 34.5871 13.227 31.566C13.227 28.5449 15.3761 26.0598 18.1008 26.0598C20.8255 26.0598 23.0215 28.5406 22.9746 31.566C22.9788 34.5871 20.8255 37.068 18.1008 37.068ZM36.1121 37.068C33.4343 37.068 31.2383 34.5871 31.2383 31.566C31.2383 28.5449 33.3873 26.0598 36.1121 26.0598C38.8368 26.0598 41.0328 28.5406 40.9859 31.566C40.9859 34.5871 38.8368 37.068 36.1121 37.068Z" fill="white"/>
<path d="M72.8506 19.301H84.4911C87.2972 19.301 89.6679 19.7462 91.6127 20.6322C93.5523 21.5182 95.0067 22.7543 95.9705 24.3362C96.9337 25.918 97.4197 27.729 97.4197 29.769C97.4197 31.7657 96.9166 33.5767 95.9103 35.1974C94.9041 36.8225 93.3732 38.1062 91.3139 39.0527C89.2547 39.9992 86.7042 40.4746 83.6558 40.4746H72.8506V19.301ZM83.5361 35.0937C85.4252 35.0937 86.8796 34.614 87.894 33.6587C88.9091 32.6993 89.4167 31.394 89.4167 29.7387C89.4167 28.2043 88.9641 26.9812 88.0604 26.0649C87.1568 25.1487 85.7879 24.6862 83.9582 24.6862H80.3168V35.0937H83.5361Z" fill="white"/>
<path d="M114.847 40.4487C113.235 40.0252 111.781 39.4114 110.49 38.6032V33.581C111.466 34.346 112.775 34.977 114.416 35.474C116.058 35.9668 117.645 36.2131 119.179 36.2131C119.896 36.2131 120.437 36.118 120.804 35.9278C121.171 35.7377 121.354 35.5086 121.354 35.245C121.354 34.9425 121.256 34.6918 121.056 34.4886C120.855 34.2855 120.467 34.1169 119.892 33.9743L116.31 33.1574C114.259 32.6734 112.804 32.0034 111.939 31.1434C111.074 30.2876 110.643 29.1638 110.643 27.7722C110.643 26.6009 111.018 25.5853 111.777 24.7165C112.532 23.8478 113.606 23.1779 115 22.7067C116.395 22.2313 118.024 21.9937 119.896 21.9937C121.567 21.9937 123.098 22.1752 124.493 22.5382C125.887 22.9013 127.038 23.3637 127.955 23.9299V28.6798C127.016 28.1136 125.942 27.6685 124.714 27.3313C123.49 26.9985 122.233 26.8343 120.936 26.8343C119.064 26.8343 118.131 27.1584 118.131 27.8024C118.131 28.105 118.275 28.3297 118.565 28.481C118.855 28.6323 119.388 28.7879 120.16 28.9521L123.145 29.4967C125.094 29.8381 126.548 30.4389 127.502 31.2946C128.458 32.1504 128.935 33.4168 128.935 35.0937C128.935 36.9305 128.147 38.3871 126.565 39.4676C124.982 40.5481 122.74 41.0883 119.832 41.0883C118.122 41.0841 116.459 40.8723 114.847 40.4487Z" fill="white"/>
<path d="M135.98 39.8132C134.271 38.9661 132.979 37.8164 132.117 36.3642C131.256 34.912 130.821 33.2783 130.821 31.463C130.821 29.6478 131.269 28.0227 132.164 26.5921C133.06 25.1615 134.373 24.0378 136.104 23.2209C137.835 22.4041 139.903 21.9978 142.313 21.9978C145.297 21.9978 147.775 22.6332 149.745 23.9038V29.4404C149.05 28.9563 148.239 28.563 147.314 28.2604C146.389 27.9579 145.4 27.8066 144.342 27.8066C142.492 27.8066 141.046 28.148 140.001 28.8352C138.957 29.5224 138.433 30.4171 138.433 31.5279C138.433 32.617 138.939 33.5074 139.955 34.2076C140.97 34.9034 142.44 35.2535 144.372 35.2535C145.365 35.2535 146.346 35.1065 147.314 34.817C148.278 34.5231 149.109 34.1643 149.804 33.7407V39.0957C147.617 40.4269 145.08 41.0925 142.193 41.0925C139.763 41.0839 137.69 40.6603 135.98 39.8132Z" fill="white"/>
<path d="M157.19 39.8133C155.467 38.9662 154.154 37.8079 153.25 36.3341C152.346 34.8603 151.89 33.2179 151.89 31.4026C151.89 29.5874 152.341 27.9666 153.25 26.5447C154.158 25.1227 155.463 24.0076 157.177 23.1994C158.886 22.3912 160.929 21.9893 163.296 21.9893C165.662 21.9893 167.705 22.3912 169.415 23.1994C171.125 24.0076 172.43 25.1141 173.325 26.5274C174.221 27.9407 174.668 29.5615 174.668 31.3984C174.668 33.2136 174.221 34.856 173.325 36.3297C172.43 37.8035 171.12 38.9619 169.398 39.809C167.675 40.6561 165.641 41.0797 163.292 41.0797C160.942 41.0797 158.908 40.6604 157.19 39.8133ZM166.259 34.4453C166.985 33.7106 167.351 32.7382 167.351 31.528C167.351 30.3178 166.988 29.354 166.259 28.6408C165.535 27.9234 164.545 27.5647 163.292 27.5647C162.017 27.5647 161.019 27.9234 160.289 28.6408C159.565 29.3584 159.202 30.3178 159.202 31.528C159.202 32.7382 159.565 33.7106 160.289 34.4453C161.015 35.1801 162.017 35.5518 163.292 35.5518C164.545 35.5475 165.535 35.1801 166.259 34.4453Z" fill="white"/>
<path d="M192.602 23.113V29.6479C191.844 29.1422 190.863 28.8916 189.648 28.8916C188.056 28.8916 186.829 29.38 185.976 30.3568C185.119 31.3336 184.692 32.8549 184.692 34.9121V40.4789H177.38V22.7803H184.544V28.4075C184.94 26.3502 185.584 24.8332 186.471 23.8521C187.353 22.8753 188.496 22.387 189.886 22.387C190.939 22.387 191.844 22.629 192.602 23.113Z" fill="white"/>
<path d="M216.899 18.696V40.4791H209.586V36.5158C208.967 38.0069 208.029 39.1436 206.768 39.9215C205.505 40.6952 203.944 41.0842 202.094 41.0842C200.44 41.0842 198.999 40.6779 197.766 39.861C196.534 39.0442 195.583 37.9248 194.914 36.5028C194.248 35.0809 193.911 33.4731 193.911 31.6752C193.89 29.821 194.244 28.157 194.973 26.6832C195.698 25.2094 196.725 24.0597 198.047 23.2342C199.369 22.4087 200.879 21.9938 202.572 21.9938C206.056 21.9938 208.392 23.5281 209.586 26.5924V18.696H216.899ZM208.495 34.3246C209.241 33.5898 209.612 32.6346 209.612 31.4677C209.612 30.3396 209.249 29.419 208.524 28.7145C207.799 28.0101 206.805 27.6556 205.556 27.6556C204.324 27.6556 203.339 28.0144 202.601 28.7318C201.863 29.4493 201.497 30.3785 201.497 31.5282C201.497 32.6779 201.863 33.6157 202.601 34.3418C203.339 35.0679 204.311 35.431 205.526 35.431C206.759 35.4267 207.748 35.0593 208.495 34.3246Z" fill="white"/>
<path d="M103.582 24.6645C105.595 24.6645 107.228 23.1783 107.228 21.3451C107.228 19.5119 105.595 18.0259 103.582 18.0259C101.568 18.0259 99.936 19.5119 99.936 21.3451C99.936 23.1783 101.568 24.6645 103.582 24.6645Z" fill="white"/>
<path d="M99.9329 26.9509C102.167 27.9277 104.939 27.9709 107.224 26.9509V40.574H99.9329V26.9509Z" fill="white"/>
</g>
<defs>
<clipPath id="clip0_2628_33865">
<rect width="217" height="59" fill="white"/>
</clipPath>
</defs>
</svg>
