<svg width="216" height="38" viewBox="0 0 216 38" fill="none" xmlns="http://www.w3.org/2000/svg">
<g clip-path="url(#clip0_2933_38708)">
<path d="M5.61258 9.771H33.6884L32.3231 16.4144H14.6774L13.9213 20.0864H30.3096L28.94 26.7298H12.5516L11.7998 30.3973H29.4412L28.0715 37.0452H0L5.61258 9.771Z" fill="white"/>
<path d="M110.437 9.771H138.517L137.147 16.4144H119.502L118.75 20.0864H135.134L133.769 26.7298H117.38L116.628 30.3973H134.27L132.904 37.0452H104.829L110.437 9.771Z" fill="white"/>
<path d="M36.3716 9.771H56.6789C65.6313 9.771 69.6409 13.3403 67.5584 23.4058C65.5838 32.994 60.0533 37.0452 51.2866 37.0452H30.759L36.3716 9.771ZM42.602 30.1653H48.5992C53.3519 30.1653 55.7931 27.7247 56.6832 23.4058C57.5732 19.087 56.1517 16.6464 51.3817 16.6464H45.3846L42.602 30.1653Z" fill="white"/>
<path d="M90.0692 21.4962H104.902L101.705 37.0451H97.2286L96.5545 34.56C93.3399 37.0451 89.7451 37.9999 83.7523 37.9999C76.4287 37.9999 66.8627 36.126 69.4552 23.5218C71.9179 11.5646 81.7302 8.79834 89.7235 8.79834C101.333 8.79834 106.172 12.0821 105.537 19.1092H93.7763C93.8121 18.5496 93.694 17.9908 93.4356 17.4975C93.1773 17.0041 92.7891 16.5962 92.3159 16.3207C91.4172 15.8255 90.2679 15.6738 88.8983 15.6738C84.6467 15.6738 81.4926 17.8511 80.3563 23.388C79.315 28.4341 81.3587 31.1022 86.5348 31.1022C89.9352 31.1022 91.9228 29.7325 93.0893 27.6667H88.7946L90.0692 21.4962Z" fill="white"/>
<path d="M19.0628 2.70823H14.8113L15.3859 0H13.7527L12.288 6.85312L12.2189 7.18328H13.8521L14.4786 4.25643H18.7302L18.1037 7.18328H19.7369L21.2016 0.334625L21.2707 0H19.6375L19.0628 2.70823Z" fill="white"/>
<path d="M12.6942 0H4.9688L4.63611 1.56158H7.52665L6.32982 7.19667H7.99329L9.16851 1.55712L12.3917 1.55266L12.6942 0Z" fill="white"/>
<path d="M190.205 31.6733C189.635 31.3252 188.957 31.1423 187.578 31.1512C187.311 31.1512 185.522 31.2226 185.245 31.2405C183.612 31.3386 183.219 30.9951 183.331 30.4151C183.444 29.8351 183.863 29.5004 184.627 29.5004H191.108L191.467 27.4793H184.813C183.986 27.4369 183.163 27.6331 182.437 28.0459C182.077 28.2987 181.772 28.6246 181.538 29.0035C181.305 29.3825 181.149 29.8066 181.08 30.25C180.83 31.4234 181.123 32.2667 181.944 32.7485C182.752 33.1061 183.63 33.259 184.506 33.1947C184.796 33.1947 185.228 33.1947 185.803 33.159C186.377 33.1233 186.779 33.159 187.047 33.1278C188.901 33.0519 189.013 33.6855 188.927 34.0959C188.904 34.2762 188.838 34.448 188.737 34.5965C188.635 34.745 188.5 34.8656 188.343 34.9481C188.002 35.0915 187.635 35.154 187.267 35.131H180.566L180.134 37.17H187.311C188.159 37.2186 189.003 37.0109 189.739 36.5722C190.452 36.0047 190.927 35.1756 191.065 34.2566C191.32 33.0519 191.026 32.1863 190.201 31.6733" fill="white"/>
<path d="M214.756 19.0914C214.185 18.7389 213.507 18.5604 212.124 18.5649C211.857 18.5649 210.072 18.6407 209.796 18.6541C208.162 18.7568 207.765 18.4132 207.881 17.8332C207.998 17.2532 208.413 16.9141 209.178 16.9141H215.659L216.017 14.893H209.364C208.535 14.8491 207.712 15.047 206.987 15.464C206.627 15.715 206.321 16.0398 206.087 16.4182C205.854 16.7966 205.698 17.2205 205.63 17.6636C205.38 18.8415 205.674 19.6848 206.495 20.1622C207.299 20.5277 208.176 20.6883 209.052 20.6307C209.342 20.6307 209.774 20.6307 210.349 20.595C210.923 20.5593 211.329 20.595 211.597 20.5637C213.451 20.4879 213.559 21.117 213.472 21.5319C213.449 21.7073 213.385 21.8743 213.287 22.0194C213.188 22.1644 213.058 22.2833 212.906 22.3662C212.565 22.5075 212.198 22.5699 211.831 22.5492H205.108L204.676 24.5837H211.857C212.705 24.6339 213.549 24.426 214.285 23.9858C215.002 23.4222 215.478 22.5912 215.611 21.6702C215.862 20.47 215.572 19.6 214.747 19.0914" fill="white"/>
<path d="M203.034 19.0914C202.463 18.7389 201.785 18.5605 200.402 18.5649C200.134 18.5649 198.346 18.6408 198.073 18.6542C196.436 18.7568 196.043 18.4132 196.155 17.8332C196.267 17.2532 196.687 16.9141 197.451 16.9141H203.932L204.291 14.893H197.633C196.806 14.849 195.984 15.0469 195.261 15.4641C194.9 15.7154 194.594 16.0401 194.36 16.4184C194.126 16.7967 193.969 17.2205 193.9 17.6637C193.653 18.8416 193.943 19.6848 194.764 20.1622C195.569 20.5277 196.448 20.6884 197.326 20.6307C197.615 20.6307 198.048 20.6307 198.622 20.595C199.197 20.5593 199.599 20.595 199.871 20.5638C201.724 20.4879 201.832 21.117 201.746 21.5319C201.722 21.7076 201.657 21.8748 201.558 22.0198C201.459 22.1648 201.328 22.2836 201.176 22.3663C200.834 22.5075 200.467 22.5699 200.1 22.5492H193.381L192.949 24.5837H200.13C200.977 24.6346 201.82 24.4267 202.554 23.9859C203.28 23.4192 203.762 22.5816 203.898 21.6524C204.153 20.4522 203.859 19.5822 203.034 19.0736" fill="white"/>
<path d="M153.324 24.5837H155.437L157.472 14.9019H155.359L153.324 24.5837Z" fill="white"/>
<path d="M153.389 27.7026L153.441 27.4795H151.345L149.301 36.9338L149.258 37.1613H156.992L157.424 35.1625H151.782L153.389 27.7026Z" fill="white"/>
<path d="M167.518 27.4839L166.282 33.1993C166.175 33.7829 165.869 34.3073 165.418 34.6761C164.94 35.0384 164.36 35.2268 163.767 35.2115H162.341C162.09 35.233 161.837 35.1988 161.599 35.111C161.361 35.0233 161.144 34.8841 160.963 34.7029C160.817 34.5031 160.72 34.2692 160.682 34.0218C160.643 33.7744 160.664 33.5211 160.743 33.2841L161.991 27.4839H159.9L158.708 33.003C158.418 34.3415 158.574 35.3766 159.166 36.0949C159.758 36.8132 160.708 37.1702 161.996 37.1702H163.214C164.483 37.2098 165.732 36.8436 166.792 36.1217C167.698 35.3537 168.31 34.2785 168.52 33.0877L169.73 27.4839H167.518Z" fill="white"/>
<path d="M179.205 27.9568C178.573 27.5908 177.85 27.4248 177.127 27.4794H171.251L169.211 36.9337L169.159 37.1612H176.168C177.014 37.208 177.852 36.97 178.557 36.4831C179.21 35.9056 179.642 35.1068 179.775 34.2299C180.039 33.0164 179.775 32.1508 178.998 31.7671C179.459 31.3452 179.747 30.7584 179.806 30.1252C179.991 29.0589 179.806 28.4342 179.205 27.9568V27.9568ZM172.132 33.0967H176.794C176.949 33.077 177.105 33.091 177.254 33.1379C177.403 33.1848 177.541 33.2635 177.658 33.3688C177.72 33.4686 177.758 33.5818 177.77 33.6995C177.782 33.8172 177.768 33.9362 177.727 34.047C177.684 34.3881 177.513 34.6979 177.25 34.9092C176.987 35.1205 176.654 35.2163 176.323 35.1758H171.683L172.132 33.0967ZM177.619 30.268C177.49 30.8614 177.118 31.1157 176.371 31.1157H172.56L172.918 29.4515H176.807C177.2 29.4515 177.455 29.5229 177.572 29.679C177.623 29.7666 177.655 29.8649 177.665 29.9669C177.675 30.0688 177.662 30.1717 177.628 30.268" fill="white"/>
<path d="M142.639 30.21C143.071 29.4738 144.117 29.5719 145.193 29.5719H149.224L149.695 27.4839H145.059C143.823 27.4839 142.756 27.524 142.073 27.8363C141.369 28.2053 140.821 28.8274 140.53 29.5853C139.398 32.0571 138.988 35.1892 139.537 36.1261C140.085 37.0631 141.166 37.1791 142.877 37.1791H147.819L148.282 35.1133H143.27C141.9 35.1133 141.58 34.7475 141.542 34.1362C141.572 32.7521 141.949 31.3995 142.635 30.21" fill="white"/>
<path d="M153.376 17.0568L153.812 14.9019H143.633L141.615 24.5837H143.797L144.583 20.6083H150.524L150.956 18.5649H145.02L145.318 17.0568H153.376Z" fill="white"/>
<path d="M178.44 14.9287C178.44 14.9733 177.542 19.4171 176.915 21.9915C176.905 22.0355 176.881 22.0747 176.846 22.1023C176.811 22.13 176.769 22.1444 176.725 22.1432C176.666 22.1388 176.608 22.1178 176.56 22.0824C176.511 22.047 176.473 21.9987 176.448 21.9424C175.727 20.5103 175.187 17.8734 174.387 16.2181C174.107 15.647 173.726 14.8796 172.015 14.8796C170.188 14.8796 169.717 16.1914 169.596 16.758C169.337 18.0117 168.948 19.7607 168.598 21.3044C168.321 22.5582 168.058 23.736 167.889 24.5124L167.863 24.6328H170.404V24.5525C170.628 23.4371 171.372 19.8365 171.925 17.6369C171.934 17.5742 171.963 17.5165 172.008 17.4729C172.052 17.4293 172.11 17.4022 172.171 17.396C172.296 17.396 172.43 17.5165 172.538 17.7351C173.402 19.3948 173.834 21.8889 174.526 23.3434C174.755 23.759 175.092 24.1003 175.499 24.3289C175.906 24.5575 176.366 24.6643 176.829 24.6373C178.82 24.6373 179.166 23.2185 179.201 23.0579C179.715 20.5593 180.579 16.6197 180.864 15.3258L180.963 14.8796H178.47L178.44 14.9287Z" fill="white"/>
<path d="M183.91 15.2857C183.17 15.5604 182.566 16.1268 182.229 16.8606C181.839 17.8151 181.58 18.8213 181.46 19.85C181.264 20.7929 181.233 21.7647 181.37 22.7188C181.445 23.0721 181.609 23.3987 181.845 23.6664C182.081 23.9341 182.38 24.1334 182.713 24.2447C183.647 24.5177 184.617 24.6322 185.587 24.5838H191.493L191.886 22.527H185.876C184.325 22.527 183.863 22.3396 183.716 22.2325C183.47 22.0362 183.392 21.4695 183.5 20.6218H189.233L189.527 18.7658V18.6007H183.841C183.871 18.3372 183.952 18.0826 184.079 17.8525C184.207 17.6224 184.379 17.4215 184.584 17.2622C184.826 17.1239 185.448 16.9633 186.892 16.9633H192.379L192.811 14.8752H187.017C185.967 14.8261 184.917 14.9588 183.91 15.2678" fill="white"/>
<path d="M168.753 14.9019H158.88L158.461 16.9141H162.346L160.743 24.5837H162.834L164.471 16.9141L168.351 16.9096L168.753 14.9019Z" fill="white"/>
<path d="M24.3082 1.80261C24.4551 1.7223 24.8742 1.584 26.0364 1.584L30.2707 1.62415L30.6682 0.0357969H26.1142C25.3362 -0.002184 24.5576 0.0958631 23.8113 0.325802C23.5389 0.426295 23.2885 0.581275 23.0742 0.781861C22.8599 0.982447 22.6861 1.22471 22.5626 1.49476C22.2691 2.20601 22.077 2.95743 21.9923 3.7256C21.8417 4.42596 21.8183 5.14908 21.9231 5.85827C21.98 6.12034 22.1019 6.36261 22.2769 6.5613C22.4519 6.75999 22.674 6.90825 22.9212 6.99153C23.3502 7.13404 23.7971 7.2107 24.2477 7.21907H29.8991L30.2102 5.71104H25.2717C24.1224 5.71104 23.7767 5.57272 23.6687 5.49241C23.5607 5.4121 23.4095 5.15333 23.5564 4.29669H27.769L28.0067 2.78864H23.7551V2.72172C23.8152 2.35783 24.0067 2.03099 24.2909 1.80708" fill="white"/>
</g>
<defs>
<clipPath id="clip0_2933_38708">
<rect width="216" height="38" fill="white"/>
</clipPath>
</defs>
</svg>
