<svg width="188" height="54" viewBox="0 0 188 54" fill="none" xmlns="http://www.w3.org/2000/svg">
<path d="M20.2918 9.29346V24.0055H6.53361V9.29346H0L0 44.4103H6.53361L6.53361 30.1783H20.2918V44.4103H26.8242V9.29346H20.2918Z" fill="white"/>
<path d="M47.7272 33.0597C47.7272 35.9843 45.3016 38.3635 42.3239 38.3635C39.3449 38.3635 36.9206 35.9843 36.9206 33.0597V18.019H30.7339V33.0597C30.7339 39.3342 35.9334 44.4387 42.3239 44.4387C48.7131 44.4387 53.912 39.3342 53.912 33.0597V18.019H47.7272V33.0597ZM93.6339 19.5677C93.6339 16.4839 95.7125 15.5066 97.9882 15.5066C99.8206 15.5066 102.246 16.8755 103.827 18.5396L107.884 13.8432C105.857 11.1536 101.75 9.29346 98.3842 9.29346C91.6535 9.29346 86.8029 13.1591 86.8029 19.5677C86.8029 31.4546 101.602 27.6866 101.602 34.3416C101.602 36.3933 99.5732 38.2052 97.2478 38.2052C93.5848 38.2052 92.3959 36.4441 90.714 34.5846L86.2098 39.1825C89.0813 42.656 92.644 44.4184 96.9001 44.4184C103.285 44.4184 108.432 40.5046 108.432 34.3885C108.432 21.1809 93.6339 25.2909 93.6339 19.5677ZM185.183 38.8002C181.522 38.8002 180.483 37.2458 180.483 34.8633V24.3182H186.173V18.9734H180.483V11.9256L174.199 14.6951V36.1753C174.199 41.6681 178.058 44.4389 183.351 44.4389C184.143 44.4389 185.233 44.3887 185.828 44.2441L187.362 38.7045C186.669 38.7513 185.878 38.8002 185.183 38.8002ZM71.2703 38.305C67.3828 38.305 64.2309 35.2099 64.2309 31.3925C64.2309 27.575 67.3828 24.48 71.2703 24.48C75.1579 24.48 78.3098 27.575 78.3098 31.3925C78.3098 35.2099 75.1579 38.305 71.2703 38.305ZM71.3093 18.1949C68.2402 18.1949 66.099 19.0698 64.0298 21.0641V9.50345H57.8236V30.9276C57.8236 38.9468 63.7272 44.4389 70.3611 44.4389C77.7355 44.4389 84.1972 38.8491 84.1972 31.3172C84.1972 23.8811 78.2385 18.1949 71.3093 18.1949ZM132.802 30.9258C132.802 34.7432 129.65 37.8382 125.763 37.8382C121.875 37.8382 118.723 34.7432 118.723 30.9258C118.723 27.1083 121.875 24.0133 125.763 24.0133C129.65 24.0133 132.802 27.1083 132.802 30.9258ZM138.69 31.001C138.69 23.4692 132.228 17.8794 124.854 17.8794C118.22 17.8794 112.316 23.3721 112.316 31.3906V52.8148H118.523V41.2548C120.591 43.2484 122.732 44.1234 125.802 44.1234C132.731 44.1234 138.69 38.4372 138.69 31.001Z" fill="white"/>
<path d="M156.645 37.7156C152.774 37.7156 149.637 34.6345 149.637 30.8335C149.637 27.0326 152.774 23.9514 156.645 23.9514C160.515 23.9514 163.654 27.0326 163.654 30.8335C163.654 34.6345 160.515 37.7156 156.645 37.7156ZM158.743 17.5851V11.4624C160.371 10.7083 161.51 9.09108 161.51 7.21571V7.07373C161.51 4.48519 159.353 2.36681 156.716 2.36681H156.573C153.936 2.36681 151.779 4.48519 151.779 7.07373V7.21571C151.779 9.09108 152.92 10.7083 154.546 11.463V17.5851C152.123 17.9522 149.91 18.9335 148.084 20.3777L130.966 7.30221C131.078 6.87695 131.158 6.43782 131.159 5.97756C131.162 3.04498 128.745 0.665105 125.758 0.661138C122.772 0.657181 120.347 3.03177 120.344 5.9637C120.34 8.89628 122.758 11.2768 125.744 11.2808C126.717 11.2821 127.619 11.0107 128.408 10.5696L145.246 23.4317C143.814 25.5541 142.976 28.0971 142.976 30.8335C142.976 33.6988 143.897 36.3494 145.455 38.5292L140.334 43.5577C139.93 43.4382 139.51 43.3549 139.065 43.3549C136.611 43.3549 134.621 45.3082 134.621 47.7178C134.621 50.1281 136.611 52.082 139.065 52.082C141.519 52.082 143.508 50.1281 143.508 47.7178C143.508 47.282 143.424 46.8693 143.302 46.4718L148.367 41.4981C150.666 43.2216 153.529 44.2563 156.645 44.2563C164.195 44.2563 170.314 38.2472 170.314 30.8335C170.314 24.1225 165.294 18.5782 158.743 17.5851Z" fill="white"/>
</svg>
