<svg width="213" height="35" viewBox="0 0 213 35" fill="none" xmlns="http://www.w3.org/2000/svg">
<g clip-path="url(#clip0_2628_33863)">
<path d="M206.92 3.13624C206.92 2.19132 207.814 1.80491 209.267 1.80491C210.693 1.80491 211.615 2.15766 211.615 3.13624C211.615 4.35129 210.166 4.49048 209.257 4.49048C207.808 4.49048 206.92 4.10353 206.92 3.13624V3.13624ZM213 3.13624C213 1.28558 211.604 0 209.257 0C207.563 0 205.535 0.856159 205.535 3.13624C205.535 5.31831 207.332 6.29595 209.257 6.29595C211.208 6.29595 213 5.31804 213 3.13624V3.13624ZM206.931 11.824V10.5071C206.931 9.6922 207.437 9.39546 207.847 9.39546C208.303 9.39546 208.781 9.70842 208.781 10.5071V11.824H206.931V11.824ZM210.029 11.824V10.5676L212.895 9.43853V7.52609L209.691 8.89068C209.405 8.09583 208.644 7.61184 207.819 7.61184C206.481 7.61184 205.641 8.50071 205.641 10.2728V13.5428H212.895V11.824H210.029ZM208.338 15.1817C206.592 15.3751 205.535 16.3195 205.535 18.1693C205.535 20.3822 207.258 21.4776 209.267 21.4776C211.245 21.4776 213 20.4142 213 18.2228C213 16.5247 212.018 15.3645 210.357 15.1817L210.251 16.8574C210.95 16.9547 211.615 17.3304 211.615 18.1368C211.615 19.4374 210.335 19.5553 209.342 19.5553C208.463 19.5553 206.9 19.4374 206.9 18.2228C206.9 17.2769 207.648 16.9973 208.453 16.9877L208.338 15.1817V15.1817ZM212.895 23.1344H205.641V24.8531H212.895V23.1344ZM212.895 30.5492V31.7311L206.984 33.5072V33.5477H212.895V34.9973H205.641V32.3014L209.987 31.0112L205.641 29.6579V26.9613H212.895V28.6799H206.984V28.7225L212.895 30.5492V30.5492ZM63.5104 34.9973H36.0561C33.9308 26.9814 29.4276 10.0578 29.4276 10.0578C29.4276 10.0578 29.3494 10.0578 29.3484 10.0578V34.9973H18.1258V0.535686H37.6103C39.6616 8.48328 43.9584 24.8364 43.9584 24.8364H44.0379V0.535686H55.2864V5.77153C52.5449 8.71284 50.8808 12.4732 50.8808 17.1912C50.8808 23.9635 54.625 32.3654 63.5104 34.9973V34.9973ZM196.909 0.535686V34.9973H185.148V8.00639H184.981L178.224 34.9973H167.367L160.639 8.00639H160.456V34.9973H139.892L137.841 27.5741H126.79L124.74 34.9973H105.089C105.089 34.9973 104.424 29.9183 104.251 28.6492C103.669 24.3797 102.401 23.3452 99.8918 23.3452C98.3659 23.3452 96.46 23.3452 96.46 23.3452V34.9973H76.33C82.1291 33.658 87.3661 30.9813 90.3679 29.1389L86.1415 12.8501L74.9005 15.8611L77.2976 25.0992C76.5926 25.6064 74.2529 26.4417 72.6499 26.4417C67.2836 26.4417 64.7304 20.9761 64.7304 16.2675C64.7304 8.68901 72.3318 5.77203 79.0329 5.77203C80.5911 5.77203 82.6039 5.90994 82.885 5.94202L81.4825 0.535686C91.3903 0.535686 102.634 0.535686 104.91 0.535686C114.287 0.535686 117.921 5.05238 117.921 9.85602C117.921 17.1336 111.091 18.5024 109.788 18.7344C109.767 18.7378 109.768 18.9375 109.788 18.9415C112.517 19.4687 114.524 20.8106 115.801 23.1506C115.758 23.0718 122.976 2.43057 123.632 0.535686H141.641L149.238 22.1491H149.34V0.535686H168.708C168.708 0.535686 173.194 19.4049 173.22 19.406C174.684 13.123 177.617 0.535686 177.617 0.535686H196.909V0.535686ZM0 0.535686H13.049C13.049 0.535686 13.0292 23.4363 13.0292 34.9973C12.9497 34.9973 0.0810609 35.0034 1.31964e-06 34.9973L0 0.535686ZM132.212 7.9362L128.566 19.2987H136.085L132.403 7.9362H132.212V7.9362ZM96.46 15.5771C96.46 15.5771 99.0528 15.5771 100.339 15.5771C103.511 15.5771 104.832 13.9142 104.832 11.8739C104.832 9.27028 102.648 8.24732 100.339 8.24732C98.9683 8.24732 96.46 8.24826 96.46 8.24826V15.5771Z" fill="white"/>
</g>
<defs>
<clipPath id="clip0_2628_33863">
<rect width="213" height="35" fill="white"/>
</clipPath>
</defs>
</svg>
