<svg width="206" height="72" viewBox="0 0 206 72" fill="none" xmlns="http://www.w3.org/2000/svg">
<path fill-rule="evenodd" clip-rule="evenodd" d="M36.133 71.3004C16.58 71.3004 0.685669 55.4877 0.685669 36.0351C0.685669 16.5825 16.58 0.769775 36.133 0.769775C55.626 0.769775 71.5203 16.5825 71.5803 36.0351C71.5803 55.4877 55.686 71.3004 36.133 71.3004ZM36.133 8.22859C20.7185 8.22859 8.18299 20.6997 8.18299 36.0351C8.18299 51.3107 20.7185 63.7819 36.133 63.8415C51.5475 63.8415 64.083 51.3704 64.083 36.0351C64.083 20.6997 51.5475 8.22859 36.133 8.22859ZM37.6313 22.7876C41.23 22.7876 42.6695 24.7568 43.989 27.4419C46.3882 24.3987 49.5071 22.7876 53.2257 22.728C55.5649 22.728 57.4242 23.5633 58.7437 25.1744C60.1233 26.9049 60.6631 29.4111 60.0633 32.0962C60.0633 32.0962 57.5442 43.9707 57.5442 44.0303C56.8244 47.4316 53.4656 50.1764 50.0469 50.1764C48.3675 50.1764 46.988 49.52 46.0283 48.3863C45.0686 47.1929 44.7088 45.6414 45.0686 43.9707L47.4078 33.5283C47.5278 33.1106 47.5278 32.5736 47.2279 32.2156C46.988 31.9172 46.5681 31.7979 45.9683 31.7979C44.9487 31.7979 44.049 32.5139 43.8691 33.409L42.7295 38.66C41.8298 42.7176 41.5899 43.9707 41.5899 43.9707C40.8102 47.3122 37.4514 50.0571 34.0926 50.0571C32.4132 50.0571 31.0337 49.4007 30.074 48.2669C29.1144 47.1332 28.7545 45.5221 29.1144 43.7917L31.2736 33.6477C31.3935 33.23 31.3935 32.6929 31.0936 32.3349C30.8537 32.0366 30.4339 31.9172 29.8341 31.9172C28.8145 31.9172 27.9148 32.6333 27.7348 33.5283C27.7348 33.5283 25.4557 43.9707 25.4557 44.0303C24.6759 47.4316 21.3771 50.1764 17.9583 50.1764C16.2789 50.1764 14.8994 49.52 13.9398 48.3863C12.9801 47.2525 12.6203 45.6414 12.9801 43.911L17.3586 23.5633H29.3543C29.3543 23.5633 28.7545 26.3082 28.5146 27.5016C31.3336 24.2794 34.1525 22.7876 37.6313 22.7876Z" fill="white"/>
<path fill-rule="evenodd" clip-rule="evenodd" d="M162.393 32.0984V23.5655V23.5059H157.954C157.235 23.3865 155.675 23.2075 153.336 23.2075C145.419 23.2075 140.201 28.1602 140.201 36.8124C140.201 45.4646 145.179 50.2979 153.216 50.2979C157.235 50.2979 160.413 49.0449 162.693 47.3741V43.3165H159.934C158.434 45.226 156.515 46.5984 153.456 46.5984C148.898 46.5984 146.438 43.1972 146.438 36.6334C146.438 29.9503 149.437 27.0861 153.576 27.0861C155.375 27.0861 156.935 27.3845 157.834 27.7425L158.434 32.0984H162.393ZM101.574 50.0627L95.2166 27.3879H95.0966V46.9002H97.7357V50.0627H88.1991V46.9002H89.6386C90.2384 46.9002 90.7182 46.2438 90.7182 45.7068V27.9846C90.7182 27.5073 90.1784 26.7912 89.6386 26.7912H88.1991V23.5094H99.4151L104.453 41.3508H104.573L109.611 23.5094H120.767V26.7912H119.268C118.668 26.7912 118.188 27.4476 118.188 27.9846V45.7068C118.188 46.1842 118.728 46.9002 119.268 46.9002H120.767V50.0627H109.611V46.9002H112.25V27.3879H112.131L105.653 50.0627H101.574ZM121.305 40.1553C121.305 33.7705 125.444 29.8323 131.921 29.8323C135.16 29.8323 137.319 30.3096 138.639 30.8467V35.3816H135.28C134.62 34.0092 133.721 33.3528 131.801 33.3528C128.802 33.3528 126.943 35.501 126.943 40.1553C126.943 44.8693 128.503 46.8384 131.741 46.8384C134.201 46.8384 135.22 45.7643 136 44.6902H138.699V48.5688C137.199 49.4042 134.98 50.2396 131.621 50.2396C124.724 50.2993 121.305 46.54 121.305 40.1553ZM165.81 45.4053V34.426C165.81 33.9486 165.27 33.4712 164.85 33.4712H163.53V30.1297H171.328V43.6152C171.328 45.7634 172.407 46.3601 174.147 46.3601C175.586 46.3601 177.086 45.8827 178.345 45.4053V33.4712H175.706V30.1297H183.863V45.823C183.863 46.2407 184.343 46.8374 184.823 46.8374H186.142V50H179.545C178.885 50 178.585 49.5226 178.405 47.5535C176.606 49.2839 174.387 50.2983 171.148 50.2983C168.389 50.2983 165.81 49.2243 165.81 45.4053ZM197.663 46.8961C194.484 46.8961 192.745 45.106 192.505 41.1677H205.94C205.94 41.1063 205.947 40.9887 205.956 40.8342C205.974 40.5383 206 40.1071 206 39.6759C206 32.9332 202.881 29.89 196.883 29.89C190.886 29.89 186.867 33.8282 186.867 40.213C186.867 46.4187 190.346 50.2973 197.243 50.2973C201.442 50.2973 203.601 49.4023 205.22 48.3879V44.7479H202.041C201.022 46.001 200.122 46.8961 197.663 46.8961ZM200.362 38.0052H192.565C192.985 34.604 194.484 33.1719 196.823 33.1719C199.103 33.1719 200.182 34.5443 200.362 38.0052Z" fill="white"/>
</svg>
