<svg width="221" height="47" viewBox="0 0 221 47" fill="none" xmlns="http://www.w3.org/2000/svg">
<g clip-path="url(#clip0_2628_33876)">
<path fill-rule="evenodd" clip-rule="evenodd" d="M220.08 21.2548V17.3844H215.274V11.3673L215.112 11.4171L210.597 12.7984L210.508 12.8254V17.3846H203.383V14.8448C203.383 13.6621 203.647 12.7571 204.169 12.1535C204.686 11.5572 205.426 11.2541 206.371 11.2541C207.049 11.2541 207.752 11.4139 208.459 11.7292L208.637 11.8084V7.73234L208.553 7.70169C207.893 7.46452 206.996 7.34509 205.884 7.34509C204.482 7.34509 203.208 7.65017 202.097 8.25479C200.986 8.86026 200.111 9.72462 199.499 10.8236C198.888 11.9213 198.579 13.1891 198.579 14.5921V17.3844H195.232V21.2548H198.579V37.5603H203.383V21.2548H210.508V31.6167C210.508 35.8842 212.521 38.0468 216.491 38.0468C217.143 38.0468 217.83 37.9703 218.531 37.8207C219.245 37.667 219.731 37.5135 220.017 37.3495L220.08 37.3121V33.4058L219.885 33.5351C219.624 33.7088 219.299 33.8508 218.919 33.9564C218.536 34.0639 218.217 34.1178 217.97 34.1178C217.04 34.1178 216.352 33.8672 215.925 33.3726C215.493 32.8736 215.274 32.0009 215.274 30.7802V21.2548H220.08ZM184.503 34.1184C182.759 34.1184 181.384 33.5402 180.415 32.4012C179.44 31.2565 178.946 29.6244 178.946 27.5508C178.946 25.4114 179.44 23.737 180.416 22.572C181.385 21.4147 182.747 20.8274 184.464 20.8274C186.13 20.8274 187.456 21.3883 188.406 22.4956C189.36 23.6086 189.845 25.2696 189.845 27.4339C189.845 29.6248 189.389 31.3078 188.491 32.4336C187.599 33.5509 186.257 34.1184 184.503 34.1184ZM176.863 19.7959C178.747 17.8732 181.389 16.8984 184.716 16.8984C187.85 16.8984 190.336 17.8308 192.103 19.6705C193.87 21.5092 194.765 24.0691 194.765 27.2774C194.765 30.5256 193.811 33.1615 191.928 35.1086C190.045 37.0579 187.455 38.0463 184.23 38.0463C181.135 38.0463 178.633 37.1083 176.795 35.2566C174.957 33.4054 174.025 30.8645 174.025 27.7056C174.025 24.3797 174.98 21.7187 176.863 19.7959ZM166.279 16.8984C164.016 16.8984 162.144 17.4772 160.714 18.6186C159.275 19.7667 158.546 21.2725 158.546 23.0947C158.546 24.0419 158.703 24.8832 159.013 25.5968C159.325 26.3128 159.808 26.9432 160.449 27.4722C161.085 27.997 162.067 28.5467 163.369 29.106C164.463 29.5563 165.279 29.9371 165.798 30.2373C166.304 30.5316 166.664 30.8273 166.867 31.1153C167.065 31.3972 167.165 31.783 167.165 32.259C167.165 33.6145 166.149 34.274 164.061 34.274C163.286 34.274 162.402 34.1122 161.434 33.7933C160.473 33.4792 159.566 33.0193 158.745 32.4295L158.545 32.2865V36.912L158.618 36.9461C159.298 37.2599 160.155 37.5245 161.165 37.7327C162.174 37.9412 163.09 38.0472 163.886 38.0472C166.341 38.0472 168.319 37.4656 169.762 36.3174C171.214 35.1614 171.95 33.62 171.95 31.7348C171.95 30.3749 171.554 29.2086 170.773 28.268C169.997 27.3351 168.651 26.4787 166.774 25.7216C165.278 25.1212 164.32 24.6228 163.924 24.2403C163.543 23.8707 163.35 23.348 163.35 22.6861C163.35 22.0994 163.589 21.6293 164.079 21.2487C164.573 20.8661 165.261 20.6715 166.124 20.6715C166.924 20.6715 167.743 20.798 168.558 21.0458C169.371 21.2936 170.086 21.6255 170.683 22.0315L170.879 22.1656V17.7778L170.804 17.7455C170.253 17.5094 169.528 17.3073 168.646 17.1434C167.768 16.9805 166.972 16.8984 166.279 16.8984ZM141.933 32.4012C142.902 33.5402 144.277 34.1184 146.021 34.1184C147.775 34.1184 149.116 33.5509 150.009 32.4336C150.907 31.3078 151.363 29.6248 151.363 27.4339C151.363 25.2696 150.878 23.6086 149.924 22.4956C148.973 21.3883 147.647 20.8274 145.982 20.8274C144.264 20.8274 142.903 21.4147 141.934 22.572C140.959 23.737 140.465 25.4114 140.465 27.5508C140.465 29.6248 140.958 31.2565 141.933 32.4012ZM146.235 16.8984C142.907 16.8984 140.264 17.8732 138.381 19.7959C136.498 21.7187 135.543 24.3797 135.543 27.7056C135.543 30.8658 136.476 33.4054 138.314 35.2566C140.152 37.1083 142.653 38.0463 145.748 38.0463C148.973 38.0463 151.563 37.0579 153.446 35.1086C155.329 33.1615 156.284 30.5256 156.284 27.2774C156.284 24.0691 155.388 21.5092 153.621 19.6705C151.854 17.8308 149.368 16.8984 146.235 16.8984ZM128.25 17.3844V20.8785H128.301C128.744 19.7446 129.324 18.8353 130.126 18.1722C131.041 17.4177 132.108 17.0344 133.301 17.0344C134.092 17.0344 134.717 17.1292 135.159 17.317L135.236 17.35V22.1346L135.036 21.99C134.817 21.8316 134.444 21.6811 133.93 21.5425C133.41 21.4031 132.93 21.3326 132.503 21.3326C131.241 21.3326 130.208 21.8778 129.433 22.9538C128.648 24.0428 128.25 25.4845 128.25 27.2394V37.5599H123.504V17.3844H128.25ZM115.005 16.8984C112.828 16.8984 110.886 17.3652 109.234 18.2856C107.579 19.2081 106.299 20.525 105.428 22.1997C104.561 23.8703 104.12 25.8217 104.12 27.9979C104.12 29.9041 104.547 31.6535 105.391 33.1953C106.235 34.7396 107.43 35.9478 108.942 36.7858C110.453 37.6227 112.198 38.047 114.131 38.047C116.386 38.047 118.312 37.5961 119.856 36.7068L119.918 36.671V32.3231L119.719 32.4687C119.019 32.9781 118.238 33.3848 117.397 33.6777C116.558 33.9705 115.793 34.1184 115.123 34.1184C113.26 34.1184 111.765 33.5357 110.68 32.3869C109.593 31.2367 109.041 29.6214 109.041 27.5889C109.041 25.5436 109.617 23.8869 110.75 22.6644C111.88 21.4456 113.377 20.8273 115.201 20.8273C116.761 20.8273 118.281 21.3555 119.719 22.3987L119.918 22.5433V17.962L119.854 17.9258C119.313 17.6228 118.575 17.3727 117.658 17.183C116.746 16.9937 115.853 16.8984 115.005 16.8984ZM96.1061 17.3846H100.852V37.5599H96.1061V17.3846ZM98.5275 8.78979C97.7464 8.78979 97.0651 9.0557 96.5054 9.58261C95.9433 10.111 95.6583 10.7763 95.6583 11.5615C95.6583 12.3343 95.9399 12.9875 96.4967 13.5018C97.0498 14.0147 97.7332 14.2746 98.5277 14.2746C99.322 14.2746 100.008 14.0147 100.568 13.5027C101.131 12.9875 101.417 12.3345 101.417 11.5615C101.417 10.8038 101.139 10.1453 100.591 9.6039C100.043 9.06357 99.349 8.78979 98.5275 8.78979ZM86.6862 37.5598V15.8959H86.5299L77.9347 37.5598H74.4998L65.7684 15.8938H65.6121V37.5596H61.0606V9.40731H68.037L76.3056 30.3181L84.8261 9.40731H91.5296V37.5598H86.6862Z" fill="white"/>
<path fill-rule="evenodd" clip-rule="evenodd" d="M22.3259 22.3259H0V0H22.3259V22.3259Z" fill="white"/>
<path fill-rule="evenodd" clip-rule="evenodd" d="M46.9763 22.3259H24.6508V0H46.9763V22.3259Z" fill="white"/>
<path fill-rule="evenodd" clip-rule="evenodd" d="M22.3253 46.9849H0V24.6592H22.3253V46.9849Z" fill="white"/>
<path fill-rule="evenodd" clip-rule="evenodd" d="M46.9763 46.9849H24.6508V24.6592H46.9763V46.9849Z" fill="white"/>
</g>
<defs>
<clipPath id="clip0_2628_33876">
<rect width="220.08" height="46.985" fill="white"/>
</clipPath>
</defs>
</svg>
