<svg width="244" height="38" viewBox="0 0 244 38" fill="none" xmlns="http://www.w3.org/2000/svg">
<path d="M36.1935 4.6014L35.8067 4.21094C34.8012 3.20891 33.6079 2.41447 32.2949 1.873C30.9819 1.33152 29.575 1.05363 28.1544 1.05519C26.7338 1.05675 25.3274 1.33773 24.0156 1.88208C22.7038 2.42644 21.5122 3.2235 20.509 4.22774L20.0885 4.64759L19.6302 4.19415C18.6316 3.1961 17.4458 2.40434 16.1406 1.86414C14.8354 1.32395 13.4363 1.0459 12.0234 1.0459C10.6105 1.0459 9.21144 1.32395 7.90621 1.86414C6.60099 2.40434 5.4152 3.1961 4.41663 4.19415L4.03818 4.57201C3.08258 5.52569 2.32452 6.658 1.80732 7.90428C1.29013 9.15055 1.02393 10.4864 1.02393 11.8354C1.02393 13.1844 1.29013 14.5202 1.80732 15.7665C2.32452 17.0127 3.08258 18.1451 4.03818 19.0987L4.82451 19.8881L16.5984 31.6438C17.0672 32.1135 17.6242 32.4861 18.2376 32.7404C18.8509 32.9947 19.5085 33.1256 20.1726 33.1256C20.8367 33.1256 21.4943 32.9947 22.1077 32.7404C22.721 32.4861 23.2781 32.1135 23.7468 31.6438L36.1935 19.2079C37.1546 18.2491 37.917 17.1106 38.4372 15.8575C38.9574 14.6043 39.2251 13.2611 39.2251 11.9047C39.2251 10.5482 38.9574 9.20495 38.4372 7.95182C37.917 6.69869 37.1546 5.56019 36.1935 4.6014V4.6014ZM33.9817 16.9953L21.5434 29.4186C21.181 29.7788 20.6904 29.981 20.1789 29.981C19.6675 29.981 19.1769 29.7788 18.8144 29.4186L18.0365 28.6377L31.4924 15.2026C32.3706 14.3248 32.8638 13.1348 32.8638 11.8942C32.8638 10.6535 32.3706 9.46352 31.4924 8.58576V8.58576C30.614 7.70919 29.4229 7.21678 28.181 7.21678C26.9391 7.21678 25.748 7.70919 24.8696 8.58576L15.7028 17.7384L10.9343 12.9774C10.6411 12.6845 10.4764 12.2873 10.4764 11.8732C10.4764 11.459 10.6411 11.0618 10.9343 10.769V10.769C11.2273 10.4787 11.6233 10.3159 12.036 10.3159C12.4487 10.3159 12.8447 10.4787 13.1377 10.769L15.7532 13.3762L17.965 11.1636L15.3537 8.55637C14.473 7.67775 13.2789 7.18421 12.0339 7.18421C10.7889 7.18421 9.59484 7.67775 8.7141 8.55637V8.55637C7.83387 9.43646 7.33946 10.6294 7.33946 11.8732C7.33946 13.1169 7.83387 14.3099 8.7141 15.19L13.4867 19.9468L15.7028 22.1594L27.0814 10.7984C27.2255 10.6544 27.3966 10.5403 27.5849 10.4624C27.7732 10.3845 27.9751 10.3445 28.1789 10.3445C28.3827 10.3445 28.5845 10.3845 28.7728 10.4624C28.9611 10.5403 29.1322 10.6544 29.2764 10.7984C29.4205 10.9423 29.5348 11.1131 29.6128 11.3011C29.6908 11.4891 29.731 11.6906 29.731 11.8942C29.731 12.0977 29.6908 12.2992 29.6128 12.4872C29.5348 12.6752 29.4205 12.8461 29.2764 12.99L15.8205 26.4251L9.28177 19.8755L7.04473 17.6629L6.25841 16.8777C5.59219 16.2147 5.0636 15.4268 4.70293 14.5594C4.34225 13.692 4.1566 12.762 4.1566 11.8228C4.1566 10.8836 4.34225 9.95358 4.70293 9.08615C5.0636 8.21871 5.59219 7.43088 6.25841 6.76782L6.63685 6.38995C7.34477 5.68311 8.1852 5.12241 9.11015 4.73987C10.0351 4.35733 11.0265 4.16043 12.0276 4.16043C13.0288 4.16043 14.0201 4.35733 14.9451 4.73987C15.87 5.12241 16.7105 5.68311 17.4184 6.38995L17.8767 6.84759L20.0927 9.06018L22.3172 6.83919L22.7377 6.41934C23.4507 5.70704 24.2973 5.142 25.2291 4.75648C26.161 4.37097 27.1597 4.17255 28.1684 4.17255C29.177 4.17255 30.1758 4.37097 31.1076 4.75648C32.0394 5.142 32.886 5.70704 33.5991 6.41934L33.9901 6.8098C35.3421 8.16007 36.1015 9.99118 36.1015 11.9005C36.1015 13.8097 35.3421 15.6408 33.9901 16.9911L33.9817 16.9953Z" fill="white"/>
<path d="M51.0034 14.2661C51.0034 10.9857 51.7883 8.44146 53.3582 6.63332C54.9281 4.82517 57.1132 3.9225 59.9137 3.9253C62.717 3.9253 64.9022 4.82797 66.4693 6.63332C68.0363 8.43866 68.8212 10.9829 68.8241 14.2661V19.9047C68.8241 23.2803 68.0391 25.8483 66.4693 27.6089C64.8994 29.3695 62.7142 30.2525 59.9137 30.2581C57.1104 30.2581 54.9252 29.3793 53.3582 27.6215C51.7912 25.8637 51.0062 23.2957 51.0034 19.9173V14.2661ZM59.9137 27.4284C61.8761 27.4284 63.3422 26.7594 64.3121 25.4215C65.2821 24.0836 65.7712 22.1733 65.7797 19.6906V14.4803C65.7797 12.1683 65.2905 10.3 64.3121 8.8753C63.3338 7.45062 61.8676 6.74108 59.9137 6.74667C57.9514 6.74667 56.4839 7.45762 55.5111 8.8795C54.5384 10.3014 54.0506 12.1697 54.0478 14.4845V19.6906C54.0478 22.1705 54.5356 24.0808 55.5111 25.4215C56.4867 26.7622 57.9542 27.4312 59.9137 27.4284V27.4284Z" fill="white"/>
<path d="M74.4333 29.7418H71.6118V11.8059H74.4333V14.8414H74.8538C75.9752 12.4818 77.9066 11.3007 80.6483 11.2979C82.7227 11.2979 84.3767 11.943 85.6101 13.2333C86.8436 14.5237 87.4715 16.4592 87.494 19.0398V29.7418H84.6682V19.615C84.6682 17.7341 84.2477 16.3248 83.4067 15.3872C82.9671 14.9094 82.4268 14.535 81.8247 14.2911C81.2226 14.0471 80.5738 13.9397 79.925 13.9765C79.1622 13.9399 78.4011 14.0787 77.7005 14.3822C76.9998 14.6858 76.3784 15.146 75.8841 15.7272C74.9085 16.9 74.4193 18.4619 74.4165 20.4127L74.4333 29.7418Z" fill="white"/>
<path d="M105.87 11.7345C105.885 10.9823 105.717 10.2377 105.382 9.56393C105.066 8.95121 104.613 8.41959 104.058 8.0105C103.479 7.58671 102.83 7.26833 102.14 7.07004C101.399 6.85058 100.63 6.74165 99.8568 6.74676C99.1842 6.74385 98.5146 6.83573 97.8678 7.01966C97.2694 7.18768 96.7016 7.44987 96.1858 7.79637C95.7044 8.12356 95.3022 8.55386 95.0084 9.05592C94.7161 9.5801 94.5708 10.1733 94.5879 10.7731V10.9914C94.5643 11.6145 94.7096 12.2324 95.0084 12.78C95.3264 13.2996 95.7685 13.7324 96.2952 14.0395C96.9513 14.426 97.6592 14.7172 98.3976 14.9044C99.3764 15.1584 100.369 15.356 101.371 15.4964C104.028 15.9022 105.99 16.6789 107.257 17.8265C108.525 18.9741 109.153 20.5136 109.141 22.4449V22.8647C109.154 23.8869 108.964 24.9015 108.582 25.8498C108.209 26.7455 107.633 27.543 106.9 28.18C106.102 28.8671 105.172 29.3843 104.167 29.6998C102.943 30.0825 101.665 30.2653 100.382 30.2414C98.9217 30.2674 97.4685 30.0285 96.0933 29.5361C94.9269 29.1152 93.8644 28.4495 92.9775 27.5838C92.1427 26.7495 91.4948 25.7478 91.0768 24.6449C90.6403 23.477 90.4236 22.2386 90.4377 20.9922V19.9048H93.482V20.7739C93.482 22.9907 94.0904 24.6533 95.307 25.7616C96.5236 26.87 98.2196 27.4298 100.395 27.441C102.279 27.441 103.697 27.0212 104.65 26.1815C105.122 25.7723 105.496 25.2626 105.744 24.69C105.992 24.1174 106.108 23.4965 106.084 22.8731V22.659C106.115 22.0701 105.996 21.483 105.74 20.9517C105.483 20.4205 105.097 19.9623 104.617 19.6193C103.636 18.9223 102.048 18.4171 99.8526 18.1036C98.6772 17.9592 97.5193 17.6976 96.3961 17.3227C95.4491 17.0155 94.5607 16.5514 93.768 15.9498C93.0575 15.408 92.4819 14.7097 92.086 13.9094C91.6808 13.025 91.4823 12.0602 91.5057 11.088V10.6681C91.4947 9.72939 91.7065 8.80139 92.1238 7.96011C92.5374 7.13315 93.1239 6.40441 93.8437 5.82309C94.6285 5.19572 95.5263 4.72402 96.4886 4.4334C98.8481 3.74343 101.362 3.78736 103.696 4.55935C104.739 4.92344 105.704 5.48192 106.538 6.20515C107.296 6.87209 107.896 7.69978 108.292 8.62767C108.689 9.54632 108.892 10.5367 108.889 11.5372V13.0445H105.87V11.7345Z" fill="white"/>
<path d="M111.702 11.8059H117.349V4.4292H120.175V11.8059H127.126V14.409H120.175V26.0597C120.175 26.7861 120.499 27.1471 121.151 27.1471H126.26V29.7502H120.137C119.765 29.7638 119.394 29.6999 119.048 29.5626C118.702 29.4252 118.389 29.2175 118.127 28.9525C117.869 28.6844 117.666 28.3671 117.533 28.0195C117.399 27.6719 117.337 27.301 117.349 26.9288V14.409H111.702V11.8059Z" fill="white"/>
<path d="M143.534 26.7021H143.113C142.61 27.8247 141.768 28.7615 140.704 29.3808C139.715 29.9528 138.592 30.2554 137.449 30.2583C136.322 30.2692 135.204 30.067 134.152 29.6621C133.147 29.2718 132.238 28.6672 131.491 27.8903C130.703 27.0654 130.094 26.088 129.699 25.0186C129.243 23.7551 129.022 22.419 129.048 21.0762V20.4842C129.025 19.1539 129.246 17.8306 129.699 16.5796C130.094 15.5089 130.703 14.5302 131.491 13.7037C132.248 12.9266 133.161 12.3172 134.169 11.9151C135.194 11.5017 136.289 11.292 137.394 11.2979C138.567 11.2798 139.725 11.5602 140.758 12.1124C141.793 12.6861 142.623 13.5664 143.134 14.6315H143.555V11.806H146.364V26.0598C146.364 26.7861 146.687 27.1472 147.339 27.1472H148.243V29.7502H146.322C145.949 29.7641 145.578 29.7003 145.232 29.563C144.886 29.4256 144.573 29.2177 144.312 28.9525C144.052 28.685 143.849 28.3678 143.716 28.0201C143.582 27.6723 143.52 27.3011 143.534 26.9289V26.7021ZM137.739 27.5712C138.542 27.5806 139.337 27.4203 140.073 27.101C140.776 26.7977 141.401 26.3399 141.902 25.7617C142.434 25.1457 142.841 24.4329 143.101 23.6625C143.393 22.7959 143.536 21.8857 143.521 20.9712V20.5514C143.533 19.6481 143.391 18.7493 143.101 17.8938C142.835 17.122 142.423 16.4091 141.885 15.7945C141.373 15.2314 140.75 14.7785 140.056 14.4636C139.334 14.1377 138.549 13.9716 137.756 13.9766C136.956 13.9647 136.163 14.1251 135.431 14.4468C134.735 14.7534 134.112 15.2025 133.602 15.7651C133.062 16.364 132.649 17.065 132.386 17.8266C132.093 18.6815 131.951 19.5807 131.966 20.4842V21.0636C131.966 23.1125 132.503 24.7093 133.576 25.8541C134.108 26.4191 134.755 26.8645 135.472 27.1606C136.19 27.4567 136.963 27.5967 137.739 27.5712V27.5712Z" fill="white"/>
<path d="M151.283 11.8059H157.801V14.1906H158.222C158.618 13.2688 159.305 12.501 160.177 12.0032C161.065 11.5214 162.064 11.2783 163.074 11.2979C163.889 11.2659 164.7 11.4074 165.456 11.7129C166.211 12.0183 166.893 12.4808 167.456 13.0696C168.577 14.2536 169.169 15.9778 169.23 18.2422L166.257 18.662C166.257 16.9826 165.862 15.8028 165.063 15.0639C164.264 14.3265 163.207 13.9316 162.12 13.9639C161.449 13.9416 160.783 14.0859 160.181 14.3838C159.642 14.6707 159.177 15.0789 158.823 15.5761C158.449 16.1124 158.179 16.7131 158.024 17.3479C157.852 18.0585 157.767 18.7874 157.772 19.5185V27.1135H162.334V29.7166H150.85V27.1135H154.975V14.409H151.283V11.8059Z" fill="white"/>
<path d="M171.312 11.8059H176.959V4.4292H179.785V11.8059H186.731V14.409H179.785V26.0597C179.785 26.7861 180.108 27.1471 180.76 27.1471H185.89V29.7502H179.747C179.375 29.7638 179.004 29.6999 178.658 29.5626C178.312 29.4252 177.998 29.2175 177.737 28.9525C177.478 28.6844 177.276 28.3671 177.142 28.0195C177.008 27.6719 176.946 27.301 176.959 26.9288V14.409H171.312V11.8059Z" fill="white"/>
<path d="M201.941 11.8059H204.766V29.7418H201.941V26.4796H201.52C200.997 27.5683 200.212 28.5114 199.237 29.2254C198.181 29.9345 196.926 30.2889 195.654 30.2372C194.719 30.2485 193.79 30.0833 192.917 29.7502C192.1 29.4356 191.368 28.9337 190.781 28.2849C190.161 27.5802 189.693 26.7556 189.406 25.8624C189.063 24.7764 188.898 23.6422 188.918 22.5036V11.8059H191.744V22.1468C191.744 24.0277 192.129 25.402 192.9 26.2697C193.671 27.1373 194.854 27.5712 196.449 27.5712C197.212 27.6082 197.973 27.4692 198.673 27.1648C199.373 26.8604 199.993 26.3989 200.486 25.8162C201.467 24.649 201.956 23.0886 201.953 21.1349L201.941 11.8059Z" fill="white"/>
<path d="M210.662 36.9758H207.84V11.806H210.662V14.6273H211.082C211.687 13.5627 212.594 12.7007 213.689 12.1502C214.811 11.5846 216.053 11.2966 217.31 11.3105C218.39 11.3046 219.461 11.5145 220.459 11.9277C221.446 12.3347 222.34 12.9374 223.087 13.6995C223.878 14.5184 224.493 15.4899 224.895 16.5544C225.363 17.7906 225.591 19.1042 225.568 20.4254V21.1476C225.591 22.4779 225.37 23.8012 224.916 25.0521C224.522 26.1188 223.911 27.0923 223.121 27.9113C222.369 28.6782 221.462 29.2753 220.459 29.6621C219.433 30.0628 218.34 30.2651 217.238 30.2583C216.641 30.2558 216.046 30.1896 215.464 30.0609C214.867 29.9309 214.289 29.7248 213.744 29.448C213.202 29.1718 212.697 28.8306 212.238 28.4319C211.772 28.0272 211.381 27.5441 211.082 27.0044H210.662V36.9758ZM216.675 27.5754C217.495 27.5849 218.308 27.4307 219.067 27.122C219.78 26.8357 220.427 26.4071 220.968 25.8625C221.525 25.2813 221.954 24.5906 222.229 23.8346C222.543 22.9783 222.697 22.0719 222.684 21.1602V20.4128C222.696 19.5177 222.542 18.628 222.229 17.7888C221.947 17.0374 221.519 16.3495 220.968 15.7651C220.425 15.1983 219.771 14.7495 219.046 14.4468C218.296 14.1298 217.489 13.9697 216.675 13.9766C215.864 13.9703 215.061 14.1363 214.32 14.4636C213.602 14.7851 212.956 15.2461 212.419 15.8197C211.859 16.4302 211.422 17.143 211.133 17.9189C210.813 18.7683 210.653 19.6693 210.662 20.5766V20.9964C210.647 21.9126 210.803 22.8236 211.12 23.6834C211.407 24.4603 211.845 25.1735 212.407 25.7827C212.94 26.3565 213.587 26.8126 214.307 27.122C215.057 27.4343 215.863 27.5873 216.675 27.5712V27.5754Z" fill="white"/>
<path d="M231.384 16.4325C231.37 16.8332 231.465 17.2302 231.66 17.5808C231.855 17.9314 232.142 18.2224 232.49 18.4226C233.227 18.8816 234.572 19.1825 236.526 19.3253C238.629 19.4988 240.228 19.9998 241.324 20.8283C242.42 21.6568 242.97 22.8674 242.972 24.46V24.6783C242.985 25.4871 242.805 26.2873 242.447 27.0127C242.099 27.6949 241.605 28.2926 241 28.7634C240.33 29.2728 239.568 29.6478 238.755 29.8676C237.817 30.127 236.848 30.2541 235.875 30.2455C234.65 30.2746 233.429 30.0855 232.271 29.6871C231.35 29.3602 230.501 28.8568 229.773 28.2051C229.13 27.618 228.617 26.9029 228.268 26.1058C227.938 25.3563 227.743 24.5548 227.692 23.7379L230.37 23.0871C230.441 24.3572 231.015 25.5472 231.964 26.3955C233.021 27.2764 234.373 27.7262 235.748 27.6551C236.869 27.7083 237.981 27.4387 238.953 26.8783C239.328 26.6505 239.636 26.3263 239.844 25.9394C240.052 25.5525 240.152 25.117 240.134 24.6783C240.166 24.24 240.071 23.8018 239.859 23.4166C239.647 23.0314 239.328 22.7157 238.94 22.5077C238.145 22.0879 236.837 21.7982 235.067 21.668C232.99 21.5253 231.396 21.0439 230.286 20.2237C229.176 19.4036 228.615 18.2099 228.604 16.6425V16.4241C228.588 15.6492 228.775 14.8835 229.147 14.2031C229.52 13.5711 230.032 13.0315 230.644 12.6245C231.282 12.1785 231.993 11.8475 232.746 11.6463C233.536 11.4251 234.352 11.3149 235.172 11.3188C236.23 11.2986 237.284 11.4648 238.284 11.81C239.103 12.0901 239.864 12.5169 240.529 13.0695C241.114 13.5625 241.589 14.1716 241.925 14.8581C242.241 15.4971 242.455 16.1812 242.56 16.886L239.878 17.5367C239.843 17.008 239.698 16.4924 239.452 16.0226C239.207 15.5527 238.866 15.139 238.452 14.8077C237.541 14.1239 236.42 13.778 235.282 13.8295C234.788 13.8281 234.295 13.8831 233.814 13.9932C233.371 14.0893 232.945 14.2536 232.553 14.4802C232.22 14.6882 231.938 14.9662 231.724 15.2947C231.498 15.6308 231.379 16.0276 231.384 16.4325V16.4325Z" fill="white"/>
</svg>
