<svg width="205" height="43" viewBox="0 0 205 43" fill="none" xmlns="http://www.w3.org/2000/svg">
<path d="M70.6674 7.1499H82.0786C88.9358 7.1499 91.6485 9.72342 91.6485 15.8999C91.6485 20.4241 90.1702 23.0337 86.6794 24.0528L92.717 34.8616H85.7043L80.1543 24.6395H76.8294V34.8719H70.6674V7.1499ZM81.4303 19.4204C84.4283 19.4204 85.4968 18.391 85.4968 15.9153C85.4968 13.4396 84.4283 12.3639 81.4303 12.3639H76.8294V19.4204H81.4303Z" fill="white"/>
<path d="M95.1904 5.11182H101.27V15.303C101.978 14.5694 102.835 13.9937 103.785 13.6139C104.735 13.2341 105.755 13.059 106.778 13.1C111.213 13.1 113.521 15.7096 113.521 20.764V34.872H107.432V21.2941C107.432 19.2971 106.695 18.3191 105.051 18.3191C103.407 18.3191 102.177 19.2559 101.27 21.1294V34.872H95.1904V5.11182Z" fill="white"/>
<path d="M117.293 37.5643H119.674C120.825 37.5643 121.318 37.2349 121.748 35.9738L122.2 34.6253L114.886 13.5894H121.333L125.333 26.8996L128.963 13.5894H135.084L127.48 36.7047C126.043 41.1106 124.565 42.2892 120.374 42.2892H117.293V37.5643Z" fill="white"/>
<path d="M139.886 27.9282V18.1488H136.774V13.5886H140.021L140.348 8.28711H145.976V13.5886H150.416V18.1488H145.976V27.5679C145.976 29.565 146.494 30.1414 148.237 30.1414H150.623V34.8716H146.131C141.738 34.8716 139.886 32.8333 139.886 27.9282Z" fill="white"/>
<path d="M152.663 5.11182H158.747V15.303C159.453 14.5713 160.307 13.9966 161.253 13.6168C162.199 13.2371 163.215 13.0609 164.235 13.1C168.67 13.1 170.978 15.7096 170.978 20.764V34.872H164.909V21.2941C164.909 19.2971 164.167 18.3191 162.523 18.3191C160.879 18.3191 159.65 19.2559 158.747 21.1294V34.872H152.663V5.11182Z" fill="white"/>
<path d="M174.027 13.5894H179.214L179.38 16.199C180.034 15.2031 180.939 14.3942 182.005 13.8525C183.072 13.3108 184.262 13.0551 185.459 13.1107C188.208 13.1107 190.127 14.1402 191.211 16.1269C191.894 15.1542 192.812 14.368 193.882 13.8408C194.952 13.3136 196.138 13.0625 197.332 13.1107C201.689 13.1107 204.111 15.6379 204.111 20.4092V34.8827H198.022V21.0526C198.022 19.174 197.197 18.3195 195.719 18.3195C194.24 18.3195 193.089 19.174 192.088 21.2122V34.8724H186.019V21.0526C186.019 19.174 185.153 18.3195 183.674 18.3195C182.196 18.3195 181.05 19.1791 180.106 21.2379V34.8982H174.027V13.5894Z" fill="white"/>
<path d="M20.0936 20.9899C20.0943 19.7998 20.3232 18.6208 20.7679 17.5156H1.16649C0.986086 17.5221 0.814926 17.5964 0.687762 17.7236C0.560599 17.8507 0.486965 18.0211 0.481812 18.2002V23.7796C0.486965 23.9586 0.560599 24.129 0.687762 24.2562C0.814926 24.3833 0.986086 24.4577 1.16649 24.4641H20.7679C20.3227 23.3591 20.0938 22.18 20.0936 20.9899V20.9899Z" fill="white"/>
<path d="M54.0738 17.5156H34.4775C35.3699 19.7471 35.3699 22.2326 34.4775 24.4641H54.0738C54.2592 24.4642 54.4375 24.393 54.571 24.2653C54.7045 24.1376 54.7829 23.9635 54.7896 23.7796V18.2002C54.7829 18.0163 54.7045 17.8422 54.571 17.7145C54.4375 17.5868 54.2592 17.5155 54.0738 17.5156V17.5156Z" fill="white"/>
<path d="M27.62 24.8664C29.7771 24.8664 31.5258 23.1312 31.5258 20.9907C31.5258 18.8502 29.7771 17.115 27.62 17.115C25.4629 17.115 23.7142 18.8502 23.7142 20.9907C23.7142 23.1312 25.4629 24.8664 27.62 24.8664Z" fill="white"/>
<path d="M36.1166 9.84242C36.1178 8.65243 36.3467 7.47348 36.7909 6.36816H8.408C8.22709 6.37456 8.05534 6.44873 7.92734 6.57575C7.79933 6.70277 7.72458 6.8732 7.71814 7.05272V12.6373C7.72586 12.8159 7.80117 12.985 7.92905 13.111C8.05692 13.2369 8.22795 13.3104 8.408 13.3167H36.765C36.3286 12.2099 36.1086 11.0308 36.1166 9.84242V9.84242Z" fill="white"/>
<path d="M43.6161 13.7175C45.7732 13.7175 47.5219 11.9823 47.5219 9.84178C47.5219 7.70128 45.7732 5.96606 43.6161 5.96606C41.459 5.96606 39.7103 7.70128 39.7103 9.84178C39.7103 11.9823 41.459 13.7175 43.6161 13.7175Z" fill="white"/>
<path d="M19.1542 32.046C19.1515 33.2358 18.9227 34.4145 18.4799 35.5202H46.8369C47.0173 35.5138 47.1884 35.4394 47.3156 35.3123C47.4427 35.1851 47.5164 35.0147 47.5215 34.8357V29.2666C47.5164 29.0875 47.4427 28.9171 47.3156 28.79C47.1884 28.6628 47.0173 28.5885 46.8369 28.582H18.4799C18.9205 29.6848 19.1492 30.8597 19.1542 32.046V32.046Z" fill="white"/>
<path d="M11.6239 35.9314C13.781 35.9314 15.5297 34.1962 15.5297 32.0557C15.5297 29.9152 13.781 28.1799 11.6239 28.1799C9.46681 28.1799 7.71814 29.9152 7.71814 32.0557C7.71814 34.1962 9.46681 35.9314 11.6239 35.9314Z" fill="white"/>
</svg>
