<svg width="161" height="45" viewBox="0 0 161 45" fill="none" xmlns="http://www.w3.org/2000/svg">
<g clip-path="url(#clip0_2597_34133)">
<path d="M45.7839 7.64412L39.9457 17.7556C39.7093 18.1591 38.6457 19.8078 38.2793 20.073C37.3102 21.1914 35.9748 21.9293 34.4857 22.1829C34.1311 22.2982 32.7366 22.3674 32.3466 22.3674H12.9173L0 44.7579H19.4174C20.5401 44.7464 24.6292 44.5273 25.6456 44.1353C29.6756 43.3397 33.2447 40.7225 35.3247 37.1138L41.163 27.0023C41.3993 26.5988 42.463 24.95 42.8293 24.6849C43.7984 23.5665 45.1457 22.8286 46.6348 22.5634C46.9894 22.4481 48.3721 22.3789 48.7621 22.3789H68.1913L81.1086 0H61.7031C60.5803 0.0115296 56.4912 0.230592 55.4749 0.622598C51.433 1.40661 47.8639 4.03536 45.7839 7.64412Z" fill="white"/>
<path d="M45.713 40.6188L45.8311 40.5612C48.573 41.5758 51.4803 42.0254 55.4985 42.0254C59.8003 42.0254 61.6321 41.3567 61.6321 40.3767C61.6321 37.5058 45.6184 41.2875 45.6184 34.5081C45.6184 31.5796 48.9275 30.0347 55.2621 30.0347C58.4294 30.0347 61.3367 30.4151 64.0194 31.1876V34.1969L63.9012 34.2314C61.1003 33.4244 58.2285 32.9978 55.3448 32.9978C51.2203 32.9978 49.4712 33.4935 49.4712 34.3813C49.4712 37.2522 65.4731 33.5858 65.4731 40.2729C65.4731 43.5473 62.483 44.9885 55.2503 44.9885C51.5512 44.9885 48.183 44.5504 45.6775 43.7779V40.6188H45.713Z" fill="white"/>
<path d="M71.9968 30.4612V44.7694H68.1322V30.4612H71.9968Z" fill="white"/>
<path d="M78.2958 37.5519C78.2958 40.3421 80.9195 42.0254 86.0368 42.0254C87.585 42.0254 89.0859 41.7833 90.5278 41.3682V38.774H81.7704V36.3182H94.3805V43.0515C91.4968 44.4927 88.9323 44.9885 85.8832 44.9885C78.674 44.9885 74.4313 42.2329 74.4313 37.5173C74.4313 32.8017 78.6622 30.0461 85.6704 30.0461C89.0032 30.0461 91.7687 30.6572 94.4041 31.9831V35.1883L94.286 35.2114C91.7214 33.8394 88.9677 33.0092 86.0368 33.0092C80.9786 33.0323 78.2958 34.7156 78.2958 37.5519Z" fill="white"/>
<path d="M118.194 30.4612V44.7694H113.727L101.519 34.6003V44.7694H97.6542V30.4612H101.72L114.33 40.93V30.4612H118.194Z" fill="white"/>
<path d="M136.158 41.8871H125.793L123.962 44.7579H119.813L129.162 30.4497H133.144L142.02 44.7579H137.872L136.158 41.8871ZM134.409 38.9816L131.123 33.4935L127.625 38.9816H134.409Z" fill="white"/>
<path d="M161 41.8524V44.7694H143.852V30.4612H147.716V41.8524H161Z" fill="white"/>
</g>
<defs>
<clipPath id="clip0_2597_34133">
<rect width="161" height="45" fill="white"/>
</clipPath>
</defs>
</svg>
