<svg width="202" height="78" viewBox="0 0 202 78" fill="none" xmlns="http://www.w3.org/2000/svg">
<g clip-path="url(#clip0_2597_34098)">
<path d="M9.9524 69.1283C8.33802 69.1641 6.73326 68.8684 5.23539 68.2592C3.95162 67.7305 2.85867 66.8179 2.10319 65.6438C1.35666 64.4779 0.983398 63.0321 0.983398 61.3065V60.2457H5.51066V61.2201C5.51066 62.611 5.88659 63.651 6.63846 64.3402C7.39034 65.0294 8.50122 65.3739 9.97111 65.3739C11.4517 65.3739 12.5848 65.1247 13.3706 64.6263C14.1563 64.1279 14.5491 63.3281 14.5491 62.2268C14.5558 61.8497 14.4883 61.4749 14.3507 61.1242C14.2131 60.7735 14.008 60.4539 13.7474 60.1837C13.1142 59.5536 12.3688 59.0499 11.5506 58.6992C10.5227 58.2322 9.46674 57.8311 8.38897 57.4981C7.11856 57.1069 5.8992 56.5632 4.75701 55.8787C3.70711 55.2562 2.81214 54.3995 2.1406 53.3739C1.45693 52.2593 1.11562 50.965 1.15979 49.6546C1.11947 48.3123 1.5156 46.9937 2.28759 45.9002C3.07928 44.8384 4.15216 44.0244 5.38238 43.5521C6.81108 42.9911 8.3342 42.716 9.86688 42.7423C11.4525 42.7109 13.0289 42.9943 14.5064 43.5764C15.7713 44.0783 16.8636 44.9423 17.6493 46.0622C18.4065 47.167 18.7851 48.5408 18.7851 50.1837V51.3146H14.2418V50.3942C14.2418 49.0716 13.8855 48.0946 13.1728 47.463C12.4601 46.8314 11.3813 46.5174 9.93636 46.521C8.52527 46.521 7.44111 46.7702 6.6839 47.2687C5.92668 47.7671 5.54718 48.5606 5.5454 49.6492C5.53499 50.0233 5.59813 50.3958 5.73116 50.7452C5.86419 51.0945 6.06448 51.4137 6.32043 51.6843C6.93387 52.2941 7.66042 52.7756 8.45846 53.1013C9.35999 53.5008 10.3836 53.9038 11.5292 54.3105C12.9033 54.7523 14.2301 55.3319 15.4899 56.0406C16.532 56.6148 17.4185 57.4388 18.0715 58.4401C18.6809 59.3955 18.9855 60.6092 18.9855 62.0811C19.027 63.4487 18.6316 64.7934 17.8577 65.9164C17.056 67.0038 15.9625 67.8365 14.7068 68.3159C13.1882 68.8918 11.5741 69.1676 9.9524 69.1283V69.1283Z" fill="white"/>
<path d="M31.0597 69.1125C29.285 69.1509 27.5303 68.729 25.9632 67.8871C24.5237 67.098 23.3286 65.9218 22.5103 64.489C21.6615 62.9733 21.2305 61.2556 21.2622 59.5146C21.2274 57.7767 21.6587 56.0616 22.5103 54.551C23.3325 53.1302 24.5274 51.9663 25.9632 51.188C27.5447 50.3875 29.2893 49.9707 31.0583 49.9707C32.8274 49.9707 34.572 50.3875 36.1535 51.188C37.5893 51.9663 38.7842 53.1302 39.6064 54.551C40.458 56.0616 40.8893 57.7767 40.8545 59.5146C40.8862 61.2556 40.4552 62.9733 39.6064 64.489C38.7881 65.9218 37.593 67.098 36.1535 67.8871C34.5871 68.7284 32.8334 69.1502 31.0597 69.1125V69.1125ZM31.0597 65.3743C32.0216 65.3963 32.9702 65.1437 33.7964 64.6455C34.5822 64.1505 35.2146 63.4425 35.6217 62.6023C36.0757 61.639 36.2991 60.5813 36.2738 59.5146C36.2987 58.4576 36.0752 57.4096 35.6217 56.4566C35.2154 55.6222 34.5823 54.922 33.7964 54.4377C32.9594 53.9703 32.0187 53.7251 31.0624 53.7251C30.106 53.7251 29.1653 53.9703 28.3284 54.4377C27.5391 54.9195 26.9037 55.6203 26.4977 56.4566C26.042 57.4089 25.8176 58.4572 25.8429 59.5146C25.8171 60.5816 26.0414 61.6396 26.4977 62.6023C26.9042 63.4446 27.539 64.1531 28.3284 64.6455C29.1534 65.1416 30.0997 65.3941 31.0597 65.3743Z" fill="white"/>
<path d="M45.9694 68.7483V53.9359H42.0942V50.284H45.9694V48.6322C45.9509 47.667 46.0964 46.7057 46.3997 45.7901C46.8913 44.3106 47.9198 43.0742 49.278 42.3299C49.921 41.9739 50.6113 41.7131 51.3278 41.5553C52.043 41.3949 52.7733 41.3134 53.5059 41.3124C54.0334 41.2988 54.5608 41.3395 55.08 41.4338C55.3295 41.4822 55.5744 41.5517 55.8123 41.6417V45.3286C55.578 45.2592 55.3397 45.2042 55.0987 45.1639C54.7382 45.0972 54.3722 45.0647 54.0057 45.0668C53.4112 45.0478 52.8192 45.1516 52.2659 45.3718C51.8383 45.5469 51.468 45.8395 51.1969 46.2166C50.9375 46.5897 50.7557 47.0121 50.6624 47.4581C50.5549 47.9636 50.5029 48.4796 50.5074 48.9966V50.284H55.5584V53.9359H50.4967V68.7483H45.9694Z" fill="white"/>
<path d="M66.2509 69.0976C65.5811 69.0955 64.9128 69.0314 64.2546 68.9059C63.5934 68.7848 62.9595 68.5433 62.3838 68.1934C61.7994 67.8204 61.3293 67.2905 61.0261 66.663C60.6476 65.8297 60.4699 64.9177 60.5077 64.0017V53.9369H57.9233V50.2851H57.942C58.4145 50.2922 58.8869 50.2661 59.3558 50.2068C59.6457 50.1825 59.9158 50.0485 60.1121 49.8317C60.3012 49.5579 60.4113 49.2365 60.4302 48.9032C60.4905 48.3169 60.5164 47.7274 60.5077 47.138V44.1987H65.051V50.2851H70.4895V53.9369H65.0643V62.6117C65.0398 63.3143 65.1449 64.0154 65.3743 64.6792C65.5801 65.2028 66.0692 65.4619 66.8362 65.4619C67.1862 65.4634 67.5354 65.429 67.8785 65.3594C68.1285 65.3123 68.3737 65.2418 68.6108 65.1488V68.7305C68.3016 68.8349 67.9854 68.917 67.6647 68.9761C67.1981 69.0604 66.7249 69.1011 66.2509 69.0976Z" fill="white"/>
<path d="M93.8211 50.2849L91.4585 65.4536L87.7598 50.2849H86.3834H84.3015H82.9225L79.2585 65.4482L76.8799 50.2849H72.1816L75.9526 68.7492H82.2009L85.3518 54.8436L88.5535 68.7492H94.7671L98.5194 50.2849H93.8211Z" fill="white"/>
<path d="M117.834 68.2275C117.657 67.9336 117.519 67.6179 117.422 67.2882C117.324 66.9157 117.263 66.5341 117.24 66.1492C117.211 65.7255 117.198 65.2936 117.198 64.8537V56.438C117.242 55.1338 116.821 53.857 116.011 52.8402C115.174 51.8456 114.085 51.0993 112.86 50.6809C111.471 50.1926 110.009 49.9515 108.539 49.9684C106.995 49.9436 105.459 50.209 104.011 50.7511C102.77 51.2023 101.677 51.995 100.858 53.0399C100.077 54.0999 99.6738 55.3954 99.714 56.716H104.191C104.191 55.6508 104.56 54.8717 105.3 54.3786C106.039 53.8856 107.104 53.6391 108.493 53.6391C109.814 53.6391 110.835 53.8595 111.559 54.3004C111.893 54.4819 112.171 54.7532 112.362 55.0842C112.553 55.4152 112.649 55.7932 112.641 56.1762V56.2113C112.641 56.6405 112.227 56.9508 111.393 57.1425C109.945 57.4223 108.482 57.6223 107.013 57.7417C105.694 57.8498 104.397 58.1395 103.156 58.6027C102.09 58.9827 101.138 59.6333 100.393 60.492C99.6891 61.3727 99.3255 62.4813 99.3693 63.6121C99.3401 64.6709 99.6473 65.7113 100.246 66.5811C100.863 67.4297 101.705 68.0846 102.675 68.4704C103.82 68.9255 105.043 69.1466 106.272 69.1209C107.349 69.1315 108.422 68.9852 109.458 68.6863C110.363 68.4321 111.217 68.0172 111.978 67.461C112.283 67.2363 112.565 66.9803 112.817 66.6971C112.865 66.9473 112.927 67.1943 113.005 67.4367C113.107 67.724 113.237 68.0006 113.392 68.2626C113.486 68.4333 113.598 68.5935 113.726 68.7403H118.203C118.065 68.5808 117.941 68.4092 117.834 68.2275V68.2275ZM111.954 63.5392C111.461 64.2186 110.786 64.7412 110.009 65.0453C109.175 65.375 108.287 65.5399 107.392 65.5311C106.232 65.5311 105.366 65.3395 104.795 64.9562C104.514 64.7717 104.286 64.5155 104.135 64.2136C103.984 63.9116 103.915 63.5747 103.934 63.2369C103.915 62.8821 104.003 62.5297 104.186 62.2259C104.368 61.9221 104.637 61.6809 104.958 61.5338C105.638 61.1848 106.656 60.9463 108.012 60.8186C109.067 60.716 110.112 60.5748 111.147 60.3948C111.708 60.295 112.216 60.1816 112.694 60.0548V60.9239C112.733 61.8545 112.47 62.7725 111.946 63.5392H111.954Z" fill="white"/>
<path d="M131.175 50.136C130.596 50.0108 130.004 49.9556 129.411 49.9714C128.553 49.9566 127.7 50.1097 126.899 50.4221C126.195 50.7059 125.558 51.1352 125.028 51.6826C124.714 52.0106 124.436 52.3727 124.2 52.7622V50.2737H119.667V68.7379H124.194V59.5611C124.195 58.9128 124.277 58.2671 124.438 57.6394C124.596 57.0039 124.867 56.403 125.239 55.8661C125.618 55.3155 126.131 54.8722 126.728 54.5787C127.458 54.2377 128.257 54.0741 129.061 54.101C129.536 54.0859 130.009 54.1479 130.464 54.2845C130.708 54.3575 130.942 54.459 131.162 54.5868L131.988 50.3978C131.729 50.2757 131.456 50.1878 131.175 50.136Z" fill="white"/>
<path d="M150.954 54.57C150.19 53.1425 149.035 51.9682 147.627 51.1881C146.185 50.3748 144.478 49.969 142.506 49.9708C140.734 49.9356 138.981 50.3515 137.409 51.18C135.962 51.9498 134.758 53.1152 133.935 54.543C133.12 56.0782 132.693 57.7925 132.69 59.5342C132.687 61.276 133.109 62.9917 133.919 64.5295C134.725 65.9638 135.915 67.1389 137.353 67.9196C138.939 68.76 140.71 69.1789 142.501 69.1368C143.808 69.1533 145.111 68.9714 146.365 68.597C147.4 68.2926 148.376 67.8105 149.249 67.1719C149.988 66.6326 150.616 65.9533 151.098 65.1719C151.524 64.4865 151.787 63.7103 151.865 62.9047H147.359C147.319 63.2282 147.204 63.5377 147.025 63.8089C146.803 64.1446 146.516 64.4312 146.181 64.651C145.742 64.9416 145.255 65.1509 144.743 65.2691C144.061 65.4312 143.362 65.5073 142.661 65.4958C141.614 65.5293 140.577 65.2796 139.657 64.7724C138.834 64.2903 138.18 63.561 137.786 62.6861C137.538 62.1423 137.365 61.5664 137.273 60.9749H152.058C152.086 60.7727 152.103 60.5691 152.108 60.3649C152.108 60.095 152.127 59.8251 152.127 59.5849C152.162 57.84 151.758 56.1147 150.954 54.57V54.57ZM137.81 56.2812C138.221 55.4335 138.872 54.7287 139.681 54.2569C140.558 53.7698 141.548 53.5267 142.549 53.5525C143.508 53.5143 144.461 53.739 145.304 54.2029C145.989 54.6047 146.546 55.1968 146.908 55.9087C147.199 56.4787 147.374 57.1018 147.423 57.7414H137.311C137.412 57.2343 137.58 56.7432 137.81 56.2812V56.2812Z" fill="white"/>
<path d="M9.9336 34.4434C8.31876 34.4756 6.71419 34.1772 5.21659 33.5662C3.93316 33.0356 2.8405 32.1223 2.08439 30.9481C1.33609 29.7839 0.962824 28.3381 0.964606 26.6107V25.55H5.49186V26.5244C5.49186 27.9153 5.8678 28.9553 6.61967 29.6445C7.37154 30.3336 8.48153 30.6782 9.94964 30.6782C11.4302 30.6782 12.5643 30.429 13.3518 29.9306C14.1393 29.4322 14.5321 28.6323 14.5303 27.5311C14.5374 27.1539 14.4702 26.779 14.3325 26.4283C14.1949 26.0775 13.9896 25.7579 13.7286 25.4879C13.0962 24.8581 12.3518 24.3545 11.5344 24.0035C10.5046 23.5367 9.44693 23.1356 8.3675 22.8024C7.09667 22.4123 5.87717 21.8686 4.73554 21.1829C3.68576 20.5605 2.79009 19.7049 2.11646 18.6809C1.43405 17.5647 1.09287 16.27 1.13565 14.9589C1.09671 13.6168 1.49271 12.2985 2.26345 11.2045C3.05735 10.1408 4.1317 9.32422 5.36358 8.84824C6.79223 8.28702 8.31539 8.01201 9.84808 8.03852C11.434 8.00681 13.0106 8.29113 14.4876 8.87523C15.7531 9.37474 16.8452 10.2392 17.6278 11.3611C18.3868 12.4623 18.7663 13.8352 18.7663 15.4798V16.6107H14.223V15.6904C14.223 14.3678 13.8667 13.3908 13.154 12.7592C12.4404 12.1276 11.3634 11.8118 9.91489 11.8118C8.46638 11.8118 7.41876 12.0628 6.66243 12.5594C5.90611 13.0561 5.52661 13.8631 5.52661 14.9427C5.51611 15.3164 5.57921 15.6885 5.71226 16.0374C5.84531 16.3863 6.04564 16.705 6.30164 16.9751C6.91486 17.5852 7.64147 18.0667 8.43966 18.3921C9.34119 18.7952 10.3657 19.1982 11.5131 19.6013C12.8865 20.0447 14.2132 20.6242 15.4737 21.3314C16.5142 21.9079 17.4003 22.7314 18.0554 23.7308C18.6647 24.6863 18.9685 25.9 18.9667 27.3719C19.0096 28.7396 18.614 30.0848 17.8389 31.2072C17.0376 32.2939 15.9452 33.1265 14.6907 33.6067C13.1731 34.1922 11.5578 34.4763 9.9336 34.4434V34.4434Z" fill="white"/>
<path d="M33.919 15.596L29.9743 30.0063L25.9308 15.596H21.1978L27.4969 34.2681L27.096 35.4341C26.9141 35.9928 26.6433 36.5179 26.2943 36.9887C25.9758 37.4234 25.5672 37.7827 25.097 38.0414C24.5896 38.3062 24.0244 38.438 23.4534 38.4246C23.0766 38.4249 22.7001 38.4042 22.3256 38.3625C22.0634 38.3452 21.805 38.2898 21.5585 38.1979V41.7634C21.8199 41.8407 22.0887 41.8896 22.3603 41.9091C22.8402 41.9653 23.3231 41.9914 23.8061 41.9874C25.5379 41.9874 26.9321 41.704 27.9886 41.1372C29.0286 40.5833 29.9047 39.761 30.5275 38.7539C31.2176 37.6364 31.7704 36.4382 32.1738 35.1857L38.5879 15.5906L33.919 15.596Z" fill="white"/>
<path d="M57.6613 18.6208C57.1749 17.5804 56.3813 16.7176 55.3896 16.1512C54.2506 15.5389 52.9725 15.2393 51.6828 15.2821C50.3183 15.2668 48.9747 15.621 47.7916 16.3077C46.8889 16.8321 46.1036 17.5398 45.4853 18.386V15.5952H40.9553V34.0594H45.4826V24.2025C45.4646 23.3182 45.6628 22.443 46.0599 21.6546C46.4251 20.9269 46.9863 20.3182 47.6789 19.8985C48.3716 19.4788 49.1675 19.2651 49.9751 19.2821C50.972 19.2821 51.7577 19.4737 52.3242 19.8543C52.8873 20.2297 53.3112 20.7831 53.5296 21.4279C53.774 22.1522 53.8933 22.9137 53.8823 23.6789V34.0594H58.4256V22.3752C58.4558 21.0814 58.1945 19.7976 57.6613 18.6208V18.6208Z" fill="white"/>
<path d="M79.1274 19.8812C78.3618 18.4536 77.2047 17.2793 75.7948 16.4993C74.3534 15.686 72.6465 15.2802 70.6742 15.282C68.9027 15.2473 67.151 15.6631 65.5804 16.4912C64.1335 17.2619 62.9298 18.427 62.1061 19.8542C61.2913 21.3894 60.8637 23.1037 60.8609 24.8455C60.8581 26.5873 61.2802 28.3029 62.09 29.8408C62.8939 31.28 64.0857 32.4592 65.5269 33.2416C67.1126 34.0818 68.884 34.5007 70.6742 34.4588C71.9818 34.4753 73.2845 34.2933 74.5387 33.919C75.5739 33.6137 76.5494 33.1308 77.4223 32.4912C78.1607 31.9515 78.7895 31.2734 79.2744 30.4939C79.6985 29.8067 79.9601 29.0299 80.0387 28.224H75.5302C75.491 28.5503 75.3786 28.8633 75.2015 29.139C74.9796 29.4748 74.6922 29.7613 74.3569 29.9811C73.9181 30.2722 73.4311 30.4815 72.9191 30.5992C72.2371 30.7613 71.5378 30.8374 70.8372 30.8259C69.7903 30.8592 68.7535 30.6105 67.8333 30.1053C67.0101 29.6219 66.3562 28.8918 65.9625 28.0162C65.7142 27.4724 65.5416 26.8965 65.4494 26.305H80.2338C80.264 26.1039 80.281 25.901 80.2846 25.6977C80.298 25.4278 80.3033 25.1579 80.3033 24.915C80.34 23.1635 79.9354 21.4314 79.1274 19.8812V19.8812ZM65.9839 21.5924C66.3942 20.7447 67.0456 20.0399 67.8547 19.5681C68.7311 19.0815 69.7198 18.8384 70.7196 18.8637C71.6827 18.8295 72.6368 19.0599 73.4803 19.5304C74.1703 19.9291 74.7317 20.5205 75.0972 21.2335C75.3884 21.8035 75.5637 22.4266 75.613 23.0661H65.4841C65.5855 22.5547 65.7536 22.0592 65.9839 21.5924V21.5924Z" fill="white"/>
<path d="M94.0326 15.447C93.4529 15.323 92.861 15.2677 92.2687 15.2823C91.4092 15.267 90.555 15.421 89.7538 15.7358C89.0488 16.0172 88.4111 16.4468 87.8831 16.9962C87.5692 17.3242 87.2923 17.6863 87.0573 18.0758V15.5873H82.5247V34.0516H87.0519V24.8748C87.0532 24.2266 87.134 23.5811 87.2924 22.953C87.4528 22.3183 87.7243 21.7178 88.0942 21.1798C88.4739 20.6297 88.9862 20.1866 89.5828 19.8923C90.313 19.5516 91.112 19.388 91.9159 19.4146C92.3903 19.3995 92.864 19.4615 93.319 19.5981C93.5626 19.6717 93.7967 19.7741 94.0165 19.9031L94.8423 15.7115C94.5849 15.5883 94.3127 15.4993 94.0326 15.447V15.447Z" fill="white"/>
<path d="M111.953 32.8437C111.036 32.5191 110.081 32.315 109.112 32.2364L102.674 31.6264C101.756 31.5347 101.137 31.37 100.817 31.1325C100.669 31.035 100.548 30.9022 100.463 30.7458C100.379 30.5895 100.334 30.4145 100.333 30.2364C100.334 30.0443 100.379 29.855 100.464 29.6832C100.55 29.5115 100.673 29.3618 100.825 29.2459L100.913 29.173C102.221 29.624 103.598 29.8422 104.98 29.8181C106.725 29.8181 108.171 29.5113 109.32 28.8977C110.438 28.3106 111.386 27.4423 112.073 26.3768C112.78 25.2696 113.287 24.0453 113.572 22.76L115.224 15.5967H111.162L110.895 17.9071C110.823 17.8154 110.746 17.7254 110.662 17.6372C109.963 16.8905 109.107 16.3113 108.158 15.9422C107.036 15.4926 105.837 15.2707 104.63 15.289C103.129 15.2632 101.642 15.5845 100.282 16.2283C99.0624 16.8016 98.021 17.7003 97.2701 18.8275C96.5316 19.9646 96.1506 21.3006 96.177 22.6602C96.1531 23.989 96.5256 25.2943 97.246 26.4065C97.5889 26.9268 98.0038 27.3949 98.4781 27.7965C98.313 27.9029 98.1549 28.0201 98.005 28.1474C97.5622 28.5211 97.1815 28.9639 96.8772 29.4591C96.553 29.9665 96.3821 30.5583 96.3855 31.1622C96.3748 31.6348 96.4783 32.103 96.6869 32.5262C96.8955 32.9494 97.2029 33.315 97.5828 33.5914C98.4779 34.2434 99.5363 34.6286 100.637 34.7034L107.586 35.3485C108.239 35.3885 108.886 35.5044 109.513 35.6939C109.761 35.7625 109.977 35.9169 110.123 36.13C110.27 36.3431 110.338 36.6015 110.315 36.8599C110.307 37.0736 110.247 37.2822 110.141 37.4672C110.035 37.6521 109.885 37.8079 109.705 37.9207C109.163 38.2758 108.553 38.5129 107.915 38.617C106.945 38.7949 105.96 38.8763 104.975 38.8599C103.371 38.8599 102.095 38.7007 101.145 38.3822C100.188 38.0637 99.7074 37.5428 99.7074 36.8248C99.7017 36.5742 99.7369 36.3243 99.8116 36.0853C99.8583 35.9283 99.9276 35.7792 100.017 35.6426L95.8697 35.0354C95.7029 35.3053 95.5751 35.598 95.4902 35.9045C95.3835 36.2827 95.3313 36.6745 95.3352 37.0678C95.3352 38.5864 96.1556 39.7893 97.7966 40.6764C99.4375 41.5635 101.785 42.007 104.839 42.007C106.631 42.0467 108.42 41.824 110.149 41.3458C111.589 40.9067 112.682 40.2769 113.428 39.4564C114.161 38.6798 114.563 37.6439 114.548 36.5711C114.548 35.5752 114.318 34.7763 113.858 34.1798C113.361 33.5613 112.7 33.0981 111.953 32.8437V32.8437ZM101.185 20.6116C101.569 20.042 102.103 19.593 102.727 19.316C103.438 19.0043 104.206 18.8506 104.98 18.8653C105.761 18.8473 106.536 18.9982 107.255 19.3079C107.866 19.5786 108.386 20.0231 108.751 20.5873C109.101 21.196 109.286 21.8874 109.286 22.5914C109.286 23.2953 109.101 23.9867 108.751 24.5954C108.386 25.154 107.865 25.5915 107.255 25.8532C106.53 26.1607 105.75 26.3098 104.964 26.2904C104.183 26.3075 103.406 26.1624 102.682 25.864C102.066 25.6064 101.54 25.1707 101.169 24.6116C100.812 24.0064 100.624 23.3142 100.627 22.6093C100.63 21.9045 100.823 21.2138 101.185 20.6116V20.6116Z" fill="white"/>
<path d="M122.11 15.5962H117.634V34.0605H122.11V15.5962Z" fill="white"/>
<path d="M119.19 8.32514L117.164 10.3711C116.787 10.7516 116.787 11.3685 117.164 11.749L119.19 13.795C119.566 14.1755 120.177 14.1755 120.554 13.795L122.58 11.749C122.957 11.3685 122.957 10.7516 122.58 10.3711L120.554 8.32515C120.177 7.94464 119.566 7.94463 119.19 8.32514Z" fill="white"/>
<path d="M132.535 34.444C131.488 34.4497 130.445 34.3265 129.427 34.077C128.503 33.8615 127.62 33.4969 126.811 32.9973C126.078 32.5396 125.46 31.917 125.004 31.1782C124.552 30.4217 124.323 29.5513 124.341 28.6681V28.2659H128.853V28.579C128.842 28.9314 128.933 29.2794 129.114 29.5805C129.296 29.8815 129.561 30.1225 129.876 30.274C130.557 30.6519 131.49 30.8408 132.674 30.8408C133.285 30.8445 133.895 30.7738 134.489 30.6303C134.991 30.5249 135.463 30.3052 135.868 29.9879C136.037 29.8576 136.173 29.6891 136.266 29.496C136.359 29.3029 136.406 29.0905 136.403 28.8759C136.403 28.1453 136.032 27.6235 135.291 27.3104C134.55 26.9973 133.391 26.7139 131.816 26.4602C130.945 26.3094 130.082 26.1057 129.235 25.8502C128.421 25.6122 127.642 25.2674 126.918 24.8246C126.251 24.4224 125.682 23.8757 125.25 23.2241C124.814 22.5287 124.595 21.7172 124.622 20.8948C124.587 19.773 124.968 18.6784 125.691 17.8259C126.475 16.9518 127.472 16.3003 128.583 15.9366C129.874 15.496 131.229 15.2788 132.591 15.2942C133.925 15.2823 135.25 15.5183 136.499 15.9906C137.622 16.3977 138.626 17.0847 139.417 17.9879C140.158 18.8629 140.553 19.9837 140.526 21.135V21.4049H136.031V21.1782C136.04 20.938 136 20.6984 135.914 20.4743C135.828 20.2501 135.698 20.046 135.531 19.8745C135.169 19.521 134.725 19.2641 134.24 19.1269C133.699 18.9621 133.136 18.8793 132.57 18.8813C132.031 18.8838 131.494 18.9398 130.967 19.0486C130.471 19.1335 130.001 19.3289 129.59 19.6208C129.412 19.7493 129.267 19.9207 129.171 20.1196C129.074 20.3185 129.028 20.5385 129.037 20.7598C129.033 20.981 129.083 21.1998 129.182 21.397C129.281 21.5942 129.427 21.7638 129.606 21.8907C130.086 22.2269 130.624 22.4711 131.191 22.6114C131.962 22.8235 132.744 22.9947 133.532 23.1242C134.388 23.2689 135.236 23.4608 136.071 23.6991C136.89 23.9266 137.679 24.2538 138.42 24.6735C139.112 25.0596 139.704 25.6041 140.149 26.2632C140.611 26.9852 140.843 27.8332 140.812 28.6923C140.84 29.6105 140.601 30.5169 140.125 31.2996C139.649 32.0334 139.008 32.6437 138.255 33.081C137.43 33.5633 136.534 33.9096 135.601 34.1067C134.594 34.3318 133.566 34.4449 132.535 34.444V34.444Z" fill="white"/>
<path d="M198.94 31.2582L198.868 30.0949L184.313 31.0207L172.749 28.8209L168.593 17.6819L166.968 3.04492L165.822 3.17448L167.305 16.5402L159.432 10.551L158.737 11.4822L167.404 18.0733L164.512 36.0544L160.445 23.5578C160.415 23.4661 160.362 23.3834 160.293 23.317C160.223 23.2506 160.139 23.2025 160.046 23.1772C159.954 23.1517 159.856 23.1502 159.763 23.1729C159.669 23.1955 159.583 23.2416 159.512 23.3068L154.864 27.5146L150.567 26.5969C150.437 26.5696 150.302 26.5882 150.184 26.6497C150.067 26.7111 149.973 26.8116 149.92 26.9343C149.02 29.0153 148.645 32.1597 148.811 36.2757C148.931 39.2447 149.955 41.2447 151.852 42.1948C151.936 42.2358 152.027 42.2562 152.12 42.2542C152.207 42.2541 152.292 42.2347 152.371 42.1975C152.45 42.1588 152.519 42.1025 152.573 42.0329C152.627 41.9632 152.665 41.8819 152.684 41.7953L155.356 29.35L164.28 38.9046C164.298 38.924 164.318 38.942 164.339 38.9586L164.365 38.9775L175.229 46.1921L163.561 51.0261C163.48 51.0594 163.407 51.111 163.349 51.1769C163.29 51.2429 163.248 51.3214 163.224 51.4066C163.2 51.4918 163.196 51.5813 163.212 51.6683C163.228 51.7553 163.263 51.8375 163.315 51.9087C164.336 53.3122 165.929 54.0193 168.064 54.0193C168.583 54.0169 169.1 53.9799 169.614 53.9087C173.658 53.3689 176.656 52.4404 178.532 51.1826C178.643 51.1088 178.725 50.9985 178.764 50.8705C178.803 50.7425 178.797 50.6048 178.746 50.4809L177.105 46.3675L180.403 41.0153C180.454 40.9333 180.484 40.8398 180.49 40.7433C180.496 40.6468 180.478 40.5503 180.437 40.4626C180.397 40.3749 180.335 40.2988 180.258 40.2412C180.182 40.1836 180.092 40.1463 179.997 40.1327L167.105 38.2434L184.137 32.2487L192.069 39.7224L192.857 38.8695L185.641 32.0787L198.94 31.2582ZM168.243 20.0706L171.68 29.296L172.642 28.9316L172.452 29.9518L182.047 31.7737L165.413 37.6307L168.243 20.0706ZM151.716 40.7373C150.647 39.8709 150.043 38.3567 149.958 36.2272C149.813 32.578 150.094 29.7494 150.797 27.8385L154.335 28.5969L151.716 40.7373ZM155.851 28.1813L159.616 24.7696L163.339 36.2002L155.851 28.1813ZM169.48 52.767C167.388 53.0504 165.811 52.7265 164.777 51.8034L176.162 47.0882L177.514 50.4755C175.758 51.5092 173.059 52.2785 169.475 52.767H169.48ZM178.976 41.161L176.303 45.4984L167.182 39.4444L178.976 41.161Z" fill="white"/>
<path d="M197.411 29.3383C184.03 24.615 175.962 27.1305 172.998 28.5151C173.832 25.3275 174.885 16.8633 167.955 4.37474C166.335 1.44896 164.828 0.139918 163.396 0.409824C160.948 0.871363 160.106 5.80794 159.953 6.88756C159.889 7.15747 159.109 10.2344 156.295 15.1845C156.273 15.2277 154.229 19.1548 158.283 23.1332C156.713 23.1785 155.151 23.371 153.617 23.7081H153.585L153.47 23.7378C151.599 24.2371 149.555 25.5785 148.951 30.92C148.815 32.1105 148.756 33.3087 148.774 34.507C148.774 34.6042 148.774 34.7068 148.774 34.8039V34.9038C148.774 35.3464 148.79 35.8026 148.809 36.2803C148.921 39.0819 149.838 41.0145 151.532 42.0239C152.502 42.5681 153.598 42.8385 154.707 42.8066C157.591 42.8066 160.453 41.3842 160.603 41.3086L163.454 40.0077L162.687 43.0468C162.613 43.2952 160.937 49.1224 163.556 52.2236C164.582 53.4355 166.103 54.0455 168.086 54.0455C168.603 54.0429 169.119 54.006 169.631 53.9348C170.245 53.8512 170.825 53.7594 171.376 53.6649C172.544 53.4718 173.698 53.2014 174.831 52.8552C179.938 51.3276 180.89 49.0549 181.053 47.1143V46.9956V46.9632C181.116 45.3781 181.033 43.7905 180.804 42.2209C185.388 45.5624 188.865 42.8471 188.91 42.8093C193.242 39.1575 196.107 37.8485 196.356 37.7378C197.366 37.4031 202.04 35.7081 202.064 33.1926C202.086 31.7108 200.562 30.4503 197.411 29.3383ZM165.825 38.0536L172.084 30.5232C172.179 30.407 172.285 30.2995 172.399 30.202L178.263 39.5435L165.825 38.0536ZM177.696 40.9875L166.56 45.4436L165.411 39.2088L177.696 40.9875ZM164.94 37.3059L161.327 25.2007L171.456 29.4085C171.377 29.5392 171.288 29.663 171.189 29.7783L164.94 37.3059ZM166.627 4.37744C166.73 4.55738 166.837 4.74361 166.947 4.93614C173.765 17.2169 172.653 25.3653 171.857 28.2992L161.121 23.8511L166.627 4.37744ZM161.076 7.11698V7.0711C161.359 5.0711 162.292 1.80524 163.591 1.56232C163.965 1.48945 164.686 1.65679 165.779 3.11968L160.691 21.1251L159.654 11.063C160.243 9.79299 160.719 8.47241 161.076 7.11698V7.11698ZM157.294 15.754C157.829 14.7985 158.304 13.9159 158.708 13.1062L159.71 22.866C155.493 19.3086 157.222 15.8781 157.294 15.754V15.754ZM153.758 24.8741L153.863 24.8444C155.612 24.4578 157.399 24.2767 159.189 24.3046L156.677 36.696L151.102 27.1494C151.987 25.3383 153.144 25.0279 153.758 24.8633V24.8741ZM149.982 36.2668C149.945 35.6136 149.926 34.9929 149.921 34.3775C149.906 32.8767 150.021 31.3775 150.265 29.897C150.298 29.727 150.33 29.5543 150.364 29.3896L150.388 29.2789C150.447 29.0252 150.509 28.7742 150.578 28.5367L156.206 38.1562L152.198 40.9794C150.861 40.2047 150.121 38.6177 149.982 36.2668ZM160.103 40.2533C160.06 40.2749 156.362 42.113 153.451 41.5192L157.019 39.0144L162.698 39.0684L160.103 40.2533ZM157.618 37.8539L160.023 26.0077L163.901 37.9159L157.618 37.8539ZM163.711 50.2128C162.642 47.4301 163.778 43.4193 163.796 43.3545L164.494 40.5853L165.534 46.2263L163.711 50.2128ZM176.197 51.1251L175.906 51.2439L175.842 51.2709C174.212 51.8728 172.526 52.3059 170.809 52.5637C170.366 52.6339 169.909 52.696 169.435 52.75C167.118 53.0199 165.443 52.561 164.449 51.3788L166.504 46.893L176.86 50.8174C176.646 50.9227 176.424 51.0253 176.197 51.1251ZM179.909 46.9065V47.0172C179.856 47.6568 179.754 48.8606 178.143 50.0563L167.88 46.1643L179.527 41.5138C179.859 43.2905 179.988 45.1001 179.909 46.9065V46.9065ZM179.61 39.5057L173.396 29.6001C174.936 28.866 178.081 27.7432 182.9 27.7432C186.609 27.7432 191.31 28.4072 197.032 30.4287C197.24 30.5043 197.441 30.5772 197.631 30.6501L179.61 39.5057ZM188.191 41.8943C188.058 41.9996 185.016 44.3235 180.823 40.7392L190.516 40.0374C189.797 40.5853 189.022 41.2034 188.191 41.9051V41.8943ZM195.982 36.6285L195.939 36.6447C195.856 36.6771 194.544 37.2412 192.331 38.7391L182.338 39.4598L199.018 31.2655C200.634 32.0968 200.92 32.785 200.918 33.171C200.904 34.5151 197.871 36.0104 195.982 36.6393V36.6285Z" fill="white"/>
<path d="M179.783 19.908L176.967 20.164C176.443 20.2116 176.056 20.6792 176.103 21.2084L176.357 24.0532C176.404 24.5824 176.867 24.9728 177.391 24.9252L180.208 24.6691C180.732 24.6215 181.118 24.1539 181.071 23.6247L180.817 20.7799C180.77 20.2507 180.307 19.8604 179.783 19.908Z" fill="white"/>
</g>
<defs>
<clipPath id="clip0_2597_34098">
<rect width="202" height="78" fill="white"/>
</clipPath>
</defs>
</svg>
