<svg width="266" height="62" viewBox="0 0 266 62" fill="none" xmlns="http://www.w3.org/2000/svg">
<path d="M9.79719 42.4235L1.17863 47.3919L26.1348 61.8183V51.7939C19.5174 51.4255 13.4618 47.9523 9.79719 42.4235ZM26.1348 9.77944V0.0449219L1.2291 14.4386L9.69477 19.3208C13.3432 13.6994 19.4493 10.1556 26.1348 9.77944ZM46.1789 21.4534C47.6231 24.3529 48.3761 27.5482 48.3788 30.7882C48.3788 34.2198 47.5386 37.4507 46.0869 40.3131L54.6015 45.2265V16.5966L46.1789 21.4534ZM44.9854 19.3401L53.4318 14.4728L28.5603 0.0954522V9.77944C35.2442 10.1626 41.3452 13.7133 44.9854 19.3386V19.3401ZM44.8771 42.4131C41.219 47.9402 35.172 51.4167 28.5603 51.7939V61.7662L53.4645 47.371L44.8771 42.4146V42.4131ZM6.29098 30.7882C6.29098 27.422 7.1 24.2549 8.50129 21.4326L0 16.5297L0 45.2711L8.5859 40.3206C7.0783 37.3697 6.29177 34.1027 6.29098 30.7882ZM69.9223 40.1571H71.6145C73.666 40.1571 74.4587 39.1465 74.4587 36.9499V24.5893C74.4587 22.5725 73.7743 21.4193 71.6145 21.4193H69.9223V40.1571ZM66.2513 17.9594H71.6872C75.8258 17.9594 78.1296 20.4458 78.1296 24.5893V36.5903C78.1296 41.346 75.6818 43.6169 71.3622 43.6169H66.2513V17.9594ZM87.4949 35.761C87.1626 35.6932 86.8245 35.6574 86.4854 35.654C84.9045 35.654 83.6057 36.3019 83.6057 38.2473C83.6057 39.6533 84.3271 40.5896 85.5161 40.5896C86.7393 40.5896 87.4949 39.7261 87.4949 38.2473V35.761ZM87.4949 41.7429H87.4221C86.4513 43.076 85.6601 43.8324 83.8951 43.8324C82.2044 43.8324 79.9362 43.0046 79.9362 38.9681C79.9362 34.789 81.1237 32.7708 85.7314 32.7708C86.2361 32.7708 86.7393 32.8421 87.4949 32.8778V30.968C87.4949 29.7434 87.0288 28.8056 85.6601 28.8056C84.722 28.8056 83.7868 29.4551 83.5715 30.6455H80.0074C80.1158 29.0226 80.6918 27.6538 81.6626 26.6804C82.6363 25.7084 84.0035 25.1303 85.6601 25.1303C88.7195 25.1303 91.1673 27.0772 91.1673 30.8967V43.6184H87.4949V41.7429ZM95.775 25.3472L98.294 36.7329H98.3653L100.85 25.3472H104.628L99.3732 46.7885C98.582 50.067 96.4934 51.0033 94.298 51.0033H93.29V47.5449H94.1198C95.5939 47.5449 96.0615 47.0396 96.8898 42.7876L91.8873 25.3472H95.775ZM119.423 40.3741L126.333 21.4193H119.783V17.9594H130.329V20.8783L123.274 40.1586H130.329V43.6169H119.423V40.3741ZM133.126 43.6169H136.797V25.3472H133.126V43.6169ZM133.126 21.6362H136.797V17.9594H133.126V21.6348V21.6362ZM139.821 25.3472H143.492V27.1128H143.564C144.319 25.9596 145.326 25.1318 147.019 25.1318C148.603 25.1318 149.646 26.068 150.295 26.9687C151.194 25.9581 152.165 25.1318 154.11 25.1318C155.945 25.1318 158.103 26.3207 158.103 29.5992V43.6169H154.432V30.9695C154.432 29.6364 153.786 28.8071 152.633 28.8071C151.267 28.8071 150.798 29.7062 150.798 31.3277V43.6169H147.127V30.9695C147.127 29.6364 146.478 28.8071 145.326 28.8071C143.959 28.8071 143.492 29.7062 143.492 31.3277V43.6169H139.821V25.3472ZM160.889 25.3472H164.56V27.1128H164.633C165.39 25.9596 166.396 25.1318 168.09 25.1318C169.671 25.1318 170.715 26.068 171.363 26.9687C172.263 25.9581 173.234 25.1318 175.178 25.1318C177.014 25.1318 179.174 26.3207 179.174 29.5992V43.6169H175.503V30.9695C175.503 29.6364 174.855 28.8071 173.703 28.8071C172.334 28.8071 171.866 29.7062 171.866 31.3277V43.6169H168.197V30.9695C168.197 29.6364 167.548 28.8071 166.396 28.8071C165.028 28.8071 164.56 29.7062 164.56 31.3277V43.6169H160.889V25.3472ZM185.545 32.9862H189.144V30.8982C189.144 29.5279 188.459 28.8071 187.343 28.8071C186.23 28.8071 185.544 29.5279 185.544 30.8982V32.9877L185.545 32.9862ZM185.545 35.8694V38.3544C185.545 39.5091 186.228 40.1586 187.343 40.1586C188.747 40.1586 189.071 39.1123 189.144 38.3202H192.815C192.815 39.8346 192.274 41.2376 191.339 42.2125C190.367 43.2201 189.037 43.8339 187.343 43.8339C185.112 43.8339 183.421 42.7891 182.556 41.2019C182.053 40.2656 181.873 38.9681 181.873 37.4894V31.4733C181.873 29.9946 182.053 28.6986 182.556 27.7623C183.421 26.1765 185.112 25.1318 187.343 25.1318C190.728 25.1318 192.815 27.6167 192.815 30.8238V35.8694H185.544H185.545ZM195.513 25.3472H199.184V27.2942C200.697 25.9596 201.922 25.1318 204.043 25.1318V29.0226C203.689 28.8787 203.311 28.8055 202.93 28.8071C201.38 28.8071 199.184 29.7805 199.184 32.7693V43.6169H195.513V25.3472ZM205.521 25.3472H209.192V27.1128H209.264C210.019 25.9596 211.027 25.1318 212.719 25.1318C214.303 25.1318 215.347 26.068 215.995 26.9687C216.893 25.9581 217.866 25.1318 219.81 25.1318C221.645 25.1318 223.805 26.3207 223.805 29.5992V43.6169L220.132 43.6169V30.9695C220.132 29.6364 219.484 28.8071 218.333 28.8071C216.965 28.8071 216.497 29.7062 216.497 31.3277V43.6169H212.828V30.9695C212.828 29.6364 212.177 28.8071 211.027 28.8071C209.658 28.8071 209.192 29.7062 209.192 31.3277V43.6169H205.521V25.3472ZM233.774 35.761C233.442 35.6932 233.104 35.6574 232.765 35.654C231.183 35.654 229.887 36.3019 229.887 38.2473C229.887 39.6533 230.607 40.5896 231.796 40.5896C233.019 40.5896 233.774 39.7261 233.774 38.2473V35.761ZM233.774 41.7429H233.703C232.729 43.076 231.938 43.8324 230.175 43.8324C228.485 43.8324 226.216 43.0046 226.216 38.9681C226.216 34.789 227.403 32.7708 232.009 32.7708C232.514 32.7708 233.019 32.8421 233.774 32.8778V30.968C233.774 29.7434 233.307 28.8056 231.938 28.8056C231.003 28.8056 230.068 29.4551 229.853 30.6455H226.287C226.395 29.0226 226.97 27.6538 227.944 26.6804C228.916 25.7084 230.284 25.1303 231.938 25.1303C234.999 25.1303 237.445 27.0772 237.445 30.8967V43.6184H233.774V41.7429ZM240.145 25.3472H243.816V27.1128H243.888C244.643 25.9596 245.651 25.1318 247.343 25.1318C249.18 25.1318 251.121 26.3207 251.121 29.5992V43.6169H247.453V30.9695C247.453 29.6364 246.803 28.8071 245.653 28.8071C244.286 28.8071 243.818 29.7062 243.818 31.3277V43.6169H240.147V25.3472H240.145ZM253.787 25.3472H257.457V27.1128H257.531C258.285 25.9596 259.295 25.1318 260.987 25.1318C262.822 25.1318 264.765 26.3207 264.765 29.5992V43.6169H261.094V30.9695C261.094 29.6364 260.445 28.8071 259.295 28.8071C257.927 28.8071 257.457 29.7062 257.457 31.3277V43.6169H253.787V25.3472ZM109.328 31.347C108.134 32.2045 107.279 33.0546 106.766 33.8958C106.254 34.7385 105.997 35.7624 105.997 36.9692C105.997 38.4851 106.368 39.7098 107.106 40.6475C107.845 41.5838 108.795 42.0535 109.959 42.0535C111.394 42.0535 112.656 41.2688 113.745 39.6993L109.329 31.347H109.328ZM108.6 29.9529L108.315 29.3733C107.613 27.8277 107.261 26.5793 107.261 25.6252C107.261 24.2504 107.68 23.1447 108.52 22.308C109.359 21.4713 110.414 21.0537 111.688 21.0537C112.452 21.0537 113.306 21.232 114.253 21.5917V23.7006C113.466 23.1596 112.656 22.8891 111.817 22.8891C111.042 22.8891 110.414 23.1343 109.932 23.6277C109.448 24.1182 109.208 24.7751 109.208 25.5999C109.208 26.5317 109.531 27.6048 110.181 28.819L114.651 37.4032C115.104 35.71 115.336 33.9649 115.34 32.2119V30.9933H117.301C117.261 34.3268 116.737 37.0911 115.735 39.2936L117.939 43.5946H115.745L114.62 41.2316C113.307 43.0358 111.73 43.9365 109.889 43.9365C108.174 43.9365 106.754 43.3108 105.626 42.0594C104.499 40.808 103.935 39.2386 103.935 37.3512C103.935 35.9096 104.284 34.6092 104.978 33.4529C105.673 32.2981 106.878 31.1315 108.6 29.9529Z" fill="white"/>
</svg>
