<svg width="162" height="66" viewBox="0 0 162 66" fill="none" xmlns="http://www.w3.org/2000/svg">
<path d="M86.5782 22.6865C86.0956 25.0457 84.3978 26.3325 82.0029 26.3325C78.5893 26.3325 76.9629 23.9733 76.8557 20.6847C76.8557 17.4676 78.9646 15.1084 81.8957 15.1084C85.6846 15.1084 86.8463 18.6472 86.739 21.2388H78.7144C78.6608 23.0976 79.7153 24.7597 82.0565 24.7597C83.5042 24.7597 84.5229 24.0627 84.8267 22.6686H86.5782V22.6865ZM84.8803 19.7017C84.791 18.0217 83.5399 16.6812 81.7884 16.6812C79.9476 16.6812 78.8395 18.0753 78.7144 19.7017H84.8803Z" fill="white"/>
<path d="M88.0424 11.2856H89.8117V26.0844H88.0424V11.2856Z" fill="white"/>
<path d="M101.073 22.6865C100.59 25.0457 98.8921 26.3325 96.4973 26.3325C93.0837 26.3325 91.4573 23.9733 91.3501 20.6847C91.3501 17.4676 93.459 15.1084 96.39 15.1084C100.179 15.1084 101.341 18.6472 101.233 21.2388H93.2088C93.1552 23.0976 94.2096 24.7597 96.5509 24.7597C97.9985 24.7597 99.0173 24.0627 99.3211 22.6686H101.073V22.6865ZM99.3747 19.7017C99.2853 18.0217 98.0343 16.6812 96.2828 16.6812C94.442 16.6812 93.3339 18.0753 93.2088 19.7017H99.3747Z" fill="white"/>
<path d="M110.131 18.8127C109.862 17.4722 108.933 16.6858 107.485 16.6858C104.93 16.6858 104.143 18.7054 104.143 20.868C104.143 22.834 105.037 24.7822 107.271 24.7822C108.969 24.7822 109.988 23.7813 110.22 22.1728H112.025C111.632 24.7822 109.988 26.3371 107.307 26.3371C104.036 26.3371 102.285 24.0494 102.285 20.868C102.285 17.6509 103.947 15.1309 107.342 15.1309C109.773 15.1309 111.721 16.2747 111.971 18.8127H110.131V18.8127Z" fill="white"/>
<path d="M116.227 15.38H118.354V16.9349H116.227V23.5836C116.227 24.3879 116.46 24.5308 117.55 24.5308H118.354V26.0858H117.014C115.191 26.0858 114.458 25.7105 114.458 23.7444V16.9349H112.635V15.38H114.458V12.1628H116.227V15.38Z" fill="white"/>
<path d="M120.037 15.3759H121.7V17.6279H121.735C122.593 15.9121 123.773 15.0542 125.667 15.1257V16.9845C122.825 16.9845 121.789 18.593 121.789 21.3097V26.0818H120.02V15.3759H120.037Z" fill="white"/>
<path d="M131.042 15.1309C134.438 15.1309 136.243 17.5973 136.243 20.7429C136.243 23.8707 134.438 26.3371 131.042 26.3371C127.647 26.3371 125.841 23.8707 125.841 20.7429C125.841 17.5973 127.647 15.1309 131.042 15.1309ZM131.042 24.7822C132.883 24.7822 134.384 23.3345 134.384 20.7429C134.384 18.1335 132.883 16.6858 131.042 16.6858C129.201 16.6858 127.7 18.1335 127.7 20.7429C127.7 23.3345 129.201 24.7822 131.042 24.7822Z" fill="white"/>
<path d="M137.907 15.3811H139.569V17.079H139.604C140.355 15.7564 141.552 15.1309 143.089 15.1309C145.913 15.1309 146.771 16.7394 146.771 19.045V26.0869H145.002V18.8305C145.002 17.5258 144.18 16.6679 142.821 16.6679C140.695 16.6679 139.658 18.0977 139.658 20.028V26.0869H137.889V15.3811H137.907Z" fill="white"/>
<path d="M150.469 13.4483H148.7V11.2856H150.469V13.4483ZM148.7 15.3785H150.469V26.1022H148.7V15.3785Z" fill="white"/>
<path d="M160.106 18.8127C159.838 17.4722 158.908 16.6858 157.461 16.6858C154.905 16.6858 154.118 18.7054 154.118 20.868C154.118 22.834 155.012 24.7822 157.246 24.7822C158.944 24.7822 159.963 23.7813 160.195 22.1728H162C161.607 24.7822 159.963 26.3371 157.282 26.3371C154.011 26.3371 152.26 24.0494 152.26 20.868C152.26 17.6509 153.922 15.1309 157.318 15.1309C159.748 15.1309 161.696 16.2747 161.947 18.8127H160.106V18.8127Z" fill="white"/>
<path d="M77.4242 32.5298H79.0864V34.1026H79.1221C79.9085 32.9051 81.1059 32.2795 82.5893 32.2795C83.894 32.2795 85.0914 32.7979 85.5382 34.1026C86.271 32.9587 87.522 32.2795 88.8982 32.2795C91.025 32.2795 92.4726 33.1732 92.4726 35.3894V43.2535H90.7033V36.2294C90.7033 34.9068 90.3458 33.8524 88.6301 33.8524C86.9322 33.8524 85.8242 34.9247 85.8242 36.5869V43.2713H84.0548V36.2473C84.0548 34.8532 83.6259 33.8702 82.0353 33.8702C79.9442 33.8702 79.1757 35.8005 79.1757 36.6048V43.2892H77.4064V32.5298H77.4242Z" fill="white"/>
<path d="M103.648 39.8427C103.166 42.202 101.468 43.4888 99.0732 43.4888C95.6596 43.4888 94.0333 41.1296 93.926 37.841C93.926 34.6239 96.0349 32.2646 98.966 32.2646C102.755 32.2646 103.917 35.8035 103.809 38.395H95.7847C95.7311 40.2538 96.7856 41.916 99.1268 41.916C100.574 41.916 101.593 41.2189 101.897 39.8249H103.648V39.8427ZM101.951 36.858C101.861 35.1779 100.61 33.8375 98.8587 33.8375C97.0179 33.8375 95.9098 35.2315 95.7847 36.858H101.951Z" fill="white"/>
<path d="M105.36 32.5319H107.022V34.7839H107.058C107.916 33.0681 109.095 32.2102 110.99 32.2817V34.1405C108.148 34.1405 107.112 35.749 107.112 38.4657V43.2378H105.342V32.5319H105.36Z" fill="white"/>
<path d="M119.012 35.9613C118.744 34.6209 117.815 33.8345 116.367 33.8345C113.811 33.8345 113.025 35.8541 113.025 38.0167C113.025 39.9827 113.918 41.9309 116.152 41.9309C117.85 41.9309 118.869 40.93 119.101 39.3214H120.906C120.513 41.9309 118.869 43.4858 116.188 43.4858C112.918 43.4858 111.166 41.1981 111.166 38.0167C111.166 34.7996 112.828 32.2795 116.224 32.2795C118.655 32.2795 120.603 33.4234 120.853 35.9613H119.012V35.9613Z" fill="white"/>
<path d="M122.677 28.4417H124.446V34.1073H124.482C125.054 32.8205 126.573 32.2843 127.86 32.2843C130.684 32.2843 131.541 33.8929 131.541 36.1985V43.2404H129.772V35.984C129.772 34.6793 128.95 33.8214 127.592 33.8214C125.465 33.8214 124.428 35.2512 124.428 37.1815V43.2404H122.659V28.4417H122.677Z" fill="white"/>
<path d="M143.337 43.1998C143.034 43.3786 142.64 43.4858 142.069 43.4858C141.157 43.4858 140.567 42.9854 140.567 41.8236C139.584 42.9675 138.28 43.4858 136.796 43.4858C134.848 43.4858 133.258 42.61 133.258 40.4832C133.258 38.0525 135.063 37.5342 136.886 37.1946C138.834 36.8192 140.496 36.9443 140.496 35.6218C140.496 34.0847 139.227 33.8345 138.119 33.8345C136.618 33.8345 135.527 34.2992 135.438 35.872H133.669C133.776 33.2268 135.831 32.2795 138.208 32.2795C140.138 32.2795 142.229 32.7085 142.229 35.2286V40.7513C142.229 41.5734 142.229 41.9487 142.783 41.9487C142.926 41.9487 143.087 41.9309 143.32 41.8415V43.1998H143.337ZM140.478 37.7129C139.799 38.2133 138.458 38.2312 137.279 38.4457C136.117 38.6601 135.116 39.0712 135.116 40.3759C135.116 41.5377 136.117 41.9487 137.189 41.9487C139.513 41.9487 140.46 40.501 140.46 39.518V37.7129H140.478Z" fill="white"/>
<path d="M144.77 32.5298H146.432V34.2277H146.468C147.219 32.9051 148.416 32.2795 149.953 32.2795C152.777 32.2795 153.635 33.8881 153.635 36.1937V43.2356H151.865V35.9792C151.865 34.6745 151.043 33.8166 149.685 33.8166C147.558 33.8166 146.522 35.2464 146.522 37.1767V43.2356H144.752V32.5298H144.77Z" fill="white"/>
<path d="M158.531 32.5372H160.657V34.0922H158.531V40.7409C158.531 41.5451 158.763 41.6881 159.853 41.6881H160.657V43.2431H159.317C157.494 43.2431 156.761 42.8677 156.761 40.9017V34.0743H154.938V32.5194H156.761V29.3022H158.531V32.5372Z" fill="white"/>
<path d="M78.5168 57.0305C78.5704 58.6033 79.9466 59.1037 81.3942 59.1037C82.4844 59.1037 83.9857 58.8535 83.9857 57.513C83.9857 56.1368 82.2521 55.9224 80.4827 55.5292C78.7491 55.136 76.9798 54.5462 76.9798 52.5086C76.9798 50.346 79.1066 49.4524 80.9832 49.4524C83.3423 49.4524 85.2367 50.2031 85.3797 52.8125H83.6104C83.4853 51.4363 82.2878 51.0073 81.1261 51.0073C80.0717 51.0073 78.8385 51.2933 78.8385 52.3835C78.8385 53.6525 80.6972 53.8491 82.3414 54.2423C84.1108 54.6355 85.8444 55.2253 85.8444 57.2986C85.8444 59.8544 83.4674 60.6765 81.287 60.6765C78.8742 60.6765 76.8547 59.6935 76.7474 57.0483H78.5168V57.0305Z" fill="white"/>
<path d="M91.7988 61.8307C90.9945 63.9218 90.2618 64.6904 88.689 64.6904C88.278 64.6904 87.8669 64.6546 87.4737 64.5117V62.9031C87.8133 63.0103 88.1529 63.1533 88.5103 63.1533C89.2431 63.1533 89.6363 62.7959 89.958 62.1703L90.6907 60.3473L86.4371 49.6951H88.4209L91.5486 58.4706H91.5843L94.5868 49.6951H96.4455L91.7988 61.8307Z" fill="white"/>
<path d="M98.8369 57.0305C98.8905 58.6033 100.267 59.1037 101.714 59.1037C102.804 59.1037 104.306 58.8535 104.306 57.513C104.306 56.1368 102.572 55.9224 100.803 55.5292C99.0692 55.136 97.2998 54.5462 97.2998 52.5086C97.2998 50.346 99.4266 49.4524 101.303 49.4524C103.662 49.4524 105.557 50.2031 105.7 52.8125H103.93C103.805 51.4363 102.608 51.0073 101.446 51.0073C100.392 51.0073 99.1586 51.2933 99.1586 52.3835C99.1586 53.6525 101.017 53.8491 102.661 54.2423C104.431 54.6355 106.164 55.2253 106.164 57.2986C106.164 59.8544 103.787 60.6765 101.607 60.6765C99.1943 60.6765 97.1747 59.6935 97.0675 57.0483H98.8369V57.0305Z" fill="white"/>
<path d="M110.349 49.6952H112.476V51.2501H110.349V57.8988C110.349 58.7031 110.582 58.8461 111.672 58.8461H112.476V60.401H111.136C109.313 60.401 108.58 60.0257 108.58 58.0597V51.2323H106.757V49.6773H108.58V46.4602H110.349V49.6952Z" fill="white"/>
<path d="M123.377 56.9951C122.894 59.3543 121.196 60.6411 118.801 60.6411C115.388 60.6411 113.762 58.2819 113.654 54.9933C113.654 51.7762 115.763 49.417 118.694 49.417C122.483 49.417 123.645 52.9558 123.538 55.5474H115.513C115.459 57.4061 116.514 59.0683 118.855 59.0683C120.303 59.0683 121.321 58.3713 121.625 56.9772H123.377V56.9951ZM121.679 54.0103C121.59 52.3303 120.338 50.9898 118.587 50.9898C116.746 50.9898 115.638 52.3839 115.513 54.0103H121.679Z" fill="white"/>
<path d="M125.163 49.7026H126.825V51.2754H126.861C127.647 50.0779 128.845 49.4524 130.328 49.4524C131.633 49.4524 132.83 49.9707 133.277 51.2754C134.01 50.1316 135.261 49.4524 136.637 49.4524C138.764 49.4524 140.212 50.346 140.212 52.5623V60.4263H138.442V53.4023C138.442 52.0797 138.085 51.0252 136.369 51.0252C134.671 51.0252 133.563 52.0976 133.563 53.7597V60.4442H131.794V53.4202C131.794 52.0261 131.365 51.0431 129.774 51.0431C127.683 51.0431 126.915 52.9733 126.915 53.7776V60.4621H125.145V49.7026H125.163Z" fill="white"/>
<path d="M143.716 57.0305C143.77 58.6033 145.146 59.1037 146.593 59.1037C147.684 59.1037 149.185 58.8535 149.185 57.513C149.185 56.1368 147.451 55.9224 145.682 55.5292C143.948 55.136 142.179 54.5462 142.179 52.5086C142.179 50.346 144.306 49.4524 146.182 49.4524C148.541 49.4524 150.436 50.2031 150.579 52.8125H148.81C148.684 51.4363 147.487 51.0073 146.325 51.0073C145.271 51.0073 144.038 51.2933 144.038 52.3835C144.038 53.6525 145.896 53.8491 147.541 54.2423C149.31 54.6355 151.044 55.2253 151.044 57.2986C151.044 59.8544 148.667 60.6765 146.486 60.6765C144.073 60.6765 142.054 59.6935 141.947 57.0483H143.716V57.0305Z" fill="white"/>
<path d="M57.0519 0.505859H0.736694V25.0989C6.33069 13.4637 28.2777 4.02681 57.0519 0.505859Z" fill="white"/>
<path d="M71.4917 62.1122V13.927C36.6767 16.6794 10.9229 26.4201 10.9229 38.0196C10.9229 49.619 36.6767 59.3597 71.4917 62.1122Z" fill="white"/>
<path d="M0.736694 36.791V65.4948H71.4926V62.6351C35.8198 60.8657 7.22429 50.3207 0.736694 36.791Z" fill="white"/>
<path d="M154.797 49.5083C155.834 49.5083 156.656 50.3483 156.656 51.4028C156.656 52.4752 155.834 53.2973 154.797 53.2973C153.76 53.2973 152.92 52.4752 152.92 51.4028C152.92 50.3304 153.76 49.5083 154.797 49.5083ZM154.797 49.7943C153.975 49.7943 153.278 50.5092 153.278 51.3849C153.278 52.2786 153.957 52.9935 154.797 52.9935C155.637 52.9935 156.316 52.2965 156.316 51.4028C156.316 50.5092 155.637 49.7943 154.797 49.7943ZM154.44 52.4931H154.1V50.3841C154.279 50.3662 154.44 50.3304 154.69 50.3304C155.011 50.3304 155.226 50.4019 155.351 50.4913C155.476 50.5807 155.548 50.7237 155.548 50.9203C155.548 51.1883 155.369 51.3671 155.137 51.4386V51.4564C155.315 51.4922 155.44 51.653 155.494 51.9747C155.548 52.2965 155.601 52.4216 155.637 52.4931H155.28C155.226 52.4216 155.172 52.225 155.137 51.9569C155.083 51.6888 154.958 51.5815 154.69 51.5815H154.44V52.4931ZM154.44 51.3134H154.69C154.958 51.3134 155.208 51.2062 155.208 50.956C155.208 50.7773 155.065 50.5807 154.69 50.5807C154.583 50.5807 154.511 50.5807 154.44 50.5985V51.3134Z" fill="white"/>
</svg>
