<svg width="215" height="63" viewBox="0 0 215 63" fill="none" xmlns="http://www.w3.org/2000/svg">
<path d="M21.7884 53.9984H25.189L22.4506 55.9476L23.5108 59.0445L20.7858 57.136L18.0572 59.0445L19.1334 55.9476L16.3704 53.9984H19.76L20.7858 50.9756L21.7884 53.9984Z" fill="white"/>
<path d="M30.4333 56.9619H27.0474L29.8092 58.9137L28.7354 62.0081L31.4616 60.102L34.1866 62.0081L33.1251 58.9137L35.8624 56.9619H32.4629L31.4616 53.9429L30.4333 56.9619Z" fill="white"/>
<path d="M43.9788 54.5972H47.377L44.6398 56.5502L45.7013 59.6458L42.975 57.7398L40.2476 59.6458L41.3226 56.5502L38.5608 54.5972H41.948L42.975 51.5769L43.9788 54.5972Z" fill="white"/>
<path d="M54.4856 46.627H57.8875L55.1478 48.58L56.2093 51.6768L53.4855 49.7683L50.7581 51.6768L51.8319 48.58L49.0713 46.627H52.456L53.4855 43.6091L54.4856 46.627Z" fill="white"/>
<path d="M58.3431 16.0127H61.7413L59.0016 17.9633L60.0655 21.0589L57.3393 19.1528L54.6107 21.0589L55.6881 17.9633L52.925 16.0127H56.3135L57.3393 12.9924L58.3431 16.0127Z" fill="white"/>
<path d="M50.4817 7.47778H53.8824L51.1427 9.43078L52.2042 12.5264L49.4792 10.6204L46.753 12.5264L47.8255 9.43078L45.0649 7.47778H48.4497L49.4792 4.45996L50.4817 7.47778Z" fill="white"/>
<path d="M40.3628 3.35721H43.7611L41.0238 5.30897L42.0853 8.40462L39.3579 6.49856L36.6329 8.40462L37.7067 5.30897L34.9436 3.35721H38.3332L39.3579 0.336914L40.3628 3.35721Z" fill="white"/>
<path d="M26.5275 0L25.4992 3.01906H22.1121L24.8727 4.96959L23.7989 8.06771L26.5275 6.15918L29.2525 8.06771L28.1898 4.96959L30.9283 3.01906H27.5288L26.5275 0Z" fill="white"/>
<path d="M16.7276 7.2632H20.1282L17.3898 9.21249L18.4525 12.3118L15.7263 10.4046L12.9988 12.3118L14.0726 9.21249L11.3108 7.2632H14.6992L15.7263 4.24414L16.7276 7.2632Z" fill="white"/>
<path d="M9.14308 14.9272H12.5438L9.80651 16.879L10.868 19.9759L8.14302 18.0674L5.41437 19.9759L6.4906 16.879L3.72754 14.9272H7.11471L8.14302 11.9094L9.14308 14.9272Z" fill="white"/>
<path d="M3.71577 25.8242H0.331055L3.09165 27.7748L2.01665 30.8729L4.74285 28.9644L7.46905 30.8729L6.40757 27.7748L9.14728 25.8242H5.7466L4.74285 22.804L3.71577 25.8242Z" fill="white"/>
<path d="M3.38717 37.2019H0L2.76306 39.1524L1.68683 42.2506L4.41426 40.3433L7.13923 42.2506L6.07897 39.1524L8.81623 37.2019H5.41677L4.41426 34.1829L3.38717 37.2019Z" fill="white"/>
<path d="M11.6809 46.6506H15.0804L12.3431 48.6048L13.4058 51.7005L10.6784 49.7932L7.95221 51.7005L9.02598 48.6048L6.26538 46.6506H9.65255L10.6784 43.6353L11.6809 46.6506Z" fill="white"/>
<path d="M27.8337 30.9273C28.5578 30.4591 28.9199 29.4511 28.9199 27.9032C28.9199 26.846 28.7445 25.9928 28.3936 25.3434C28.0427 24.694 27.3708 24.3693 26.378 24.3693C25.9226 24.3693 25.596 24.4241 25.3981 24.5336C25.2003 24.6431 25.1014 24.8564 25.1014 25.1735V31.403C26.4675 31.3803 27.3783 31.2218 27.8337 30.9273ZM19.48 38.6518C20.234 38.599 20.7398 38.4385 20.9973 38.1705C21.2549 37.9024 21.3836 37.3569 21.3836 36.5338V26.2835C21.3836 25.4076 21.253 24.8545 20.9917 24.6242C20.7304 24.3939 20.2265 24.2372 19.48 24.1541V23.5652H26.8595C28.8154 23.5652 30.3029 23.8861 31.3219 24.5279C32.3409 25.1697 32.8504 26.2722 32.8504 27.8352C32.8504 28.5978 32.6507 29.3133 32.2513 29.9815C31.8519 30.6498 31.1931 31.1878 30.2749 31.5955C29.5806 31.8825 28.8863 32.0561 28.192 32.1166C27.4978 32.177 26.4675 32.2072 25.1014 32.2072V36.5338C25.1014 37.3871 25.2432 37.9458 25.5269 38.2101C25.8106 38.4744 26.3406 38.6216 27.117 38.6518V39.2408H19.48V38.6518ZM33.4327 38.6518C34.3062 38.6443 34.8735 38.4876 35.1348 38.1818C35.3961 37.876 35.5267 37.4173 35.5267 36.8057V25.7965C35.5267 25.1622 35.3774 24.745 35.0788 24.5449C34.7802 24.3448 34.2502 24.2145 33.4887 24.1541V23.5652H39.2669L43.7797 34.3025H43.97L48.4604 23.5652H54.2386V24.1541C53.4622 24.2145 52.9322 24.3599 52.6485 24.5902C52.3648 24.8205 52.223 25.3849 52.223 26.2835V36.5338C52.223 37.3871 52.3648 37.9458 52.6485 38.2101C52.9322 38.4744 53.4622 38.6216 54.2386 38.6518V39.2408H46.624V38.6518C47.3033 38.6292 47.8147 38.514 48.1581 38.3064C48.5015 38.0987 48.6732 37.6438 48.6732 36.9416V25.6039H48.5052L42.8838 39.2408H42.2679L36.5905 25.8757H36.4898V36.3753C36.4898 37.1454 36.6316 37.708 36.9153 38.0629C37.199 38.4178 37.826 38.6141 38.7965 38.6518V39.2408H33.4327V38.6518ZM63.7793 33.7702L61.5845 28.4015H61.3941L59.3225 33.7702H63.7793ZM55.1792 38.6518C55.7317 38.6141 56.1759 38.3611 56.5118 37.893C56.7283 37.5985 57.0381 36.9491 57.4412 35.9449L62.5363 23.248H63.1746L68.2921 35.4352C68.8669 36.8019 69.2962 37.6834 69.5799 38.0799C69.8636 38.4763 70.2667 38.6669 70.7893 38.6518V39.2408H63.365V38.6518C64.1115 38.6216 64.6024 38.5575 64.8375 38.4593C65.0727 38.3611 65.1903 38.112 65.1903 37.7118C65.1903 37.5305 65.1305 37.2549 65.0111 36.8849C64.9364 36.666 64.8357 36.4017 64.7087 36.0921L64.1264 34.6876H58.9754C58.6394 35.6088 58.4229 36.2091 58.3259 36.4885C58.1243 37.085 58.0235 37.5192 58.0235 37.791C58.0235 38.1233 58.2438 38.3649 58.6842 38.5159C58.9455 38.599 59.3374 38.6443 59.86 38.6518V39.2408H55.1792V38.6518ZM87.5751 23.8087C88.553 24.1674 89.098 24.3467 89.21 24.3467C89.5011 24.3467 89.7344 24.2334 89.9099 24.0069C90.0853 23.7804 90.1954 23.5425 90.2402 23.2933H90.8785V28.7186H90.2962C89.7438 27.5407 89.1801 26.612 88.6053 25.9324C87.5303 24.6789 86.3134 24.0522 84.9547 24.0522C83.4169 24.0522 82.3251 24.7223 81.6793 26.0626C81.0336 27.4029 80.7107 29.2019 80.7107 31.4596C80.7107 33.1208 80.9011 34.4875 81.2818 35.5598C81.991 37.5683 83.3086 38.5726 85.2347 38.5726C86.4142 38.5726 87.5116 38.2403 88.5269 37.5758C89.1092 37.1907 89.796 36.5754 90.5873 35.7297L91.2704 36.296C90.3746 37.3078 89.587 38.0402 88.9076 38.4933C87.6983 39.3012 86.3545 39.7052 84.8764 39.7052C82.6144 39.7052 80.7182 39.0256 79.1878 37.6665C77.4931 36.1638 76.6458 34.1402 76.6458 31.5955C76.6458 29.0735 77.4558 27.031 79.0758 25.468C80.5987 24.0031 82.465 23.2707 84.6748 23.2707C85.6304 23.2707 86.5971 23.45 87.5751 23.8087ZM104.798 35.8316C105.141 34.7141 105.313 33.2567 105.313 31.4596C105.313 28.9905 104.949 27.1292 104.221 25.8757C103.493 24.6223 102.506 23.9956 101.259 23.9956C99.5271 23.9956 98.3401 25.0414 97.6981 27.133C97.3621 28.2429 97.1942 29.6852 97.1942 31.4596C97.1942 33.2643 97.3659 34.7216 97.7093 35.8316C98.3438 37.893 99.5271 38.9237 101.259 38.9237C102.976 38.9237 104.156 37.893 104.798 35.8316ZM107.026 25.4793C108.601 27.0273 109.389 29.0207 109.389 31.4596C109.389 33.8986 108.601 35.892 107.026 37.4399C105.488 38.9501 103.566 39.7052 101.259 39.7052C98.8104 39.7052 96.8134 38.8784 95.2681 37.2247C93.8273 35.6692 93.1069 33.7891 93.1069 31.5842C93.1069 29.1528 93.8609 27.1556 95.3689 25.5926C96.8918 24.0069 98.8552 23.214 101.259 23.214C103.573 23.214 105.496 23.9691 107.026 25.4793ZM110.52 38.6518C111.393 38.6443 111.961 38.4876 112.222 38.1818C112.483 37.876 112.614 37.4173 112.614 36.8057V25.7965C112.614 25.1622 112.465 24.745 112.166 24.5449C111.867 24.3448 111.337 24.2145 110.576 24.1541V23.5652H116.354L120.867 34.3025H121.057L125.548 23.5652H131.326V24.1541C130.549 24.2145 130.019 24.3599 129.736 24.5902C129.452 24.8205 129.31 25.3849 129.31 26.2835V36.5338C129.31 37.3871 129.452 37.9458 129.736 38.2101C130.019 38.4744 130.549 38.6216 131.326 38.6518V39.2408H123.711V38.6518C124.39 38.6292 124.902 38.514 125.245 38.3064C125.589 38.0987 125.76 37.6438 125.76 36.9416V25.6039H125.592L119.971 39.2408H119.355L113.678 25.8757H113.577V36.3753C113.577 37.1454 113.719 37.708 114.002 38.0629C114.286 38.4178 114.913 38.6141 115.884 38.6518V39.2408H110.52V38.6518ZM140.575 30.9273C141.299 30.4591 141.661 29.4511 141.661 27.9032C141.661 26.846 141.486 25.9928 141.135 25.3434C140.784 24.694 140.112 24.3693 139.12 24.3693C138.664 24.3693 138.338 24.4241 138.14 24.5336C137.942 24.6431 137.843 24.8564 137.843 25.1735V31.403C139.209 31.3803 140.12 31.2218 140.575 30.9273ZM132.222 38.6518C132.976 38.599 133.481 38.4385 133.739 38.1705C133.996 37.9024 134.125 37.3569 134.125 36.5338V26.2835C134.125 25.4076 133.995 24.8545 133.733 24.6242C133.472 24.3939 132.968 24.2372 132.222 24.1541V23.5652H139.601C141.557 23.5652 143.044 23.8861 144.063 24.5279C145.082 25.1697 145.592 26.2722 145.592 27.8352C145.592 28.5978 145.392 29.3133 144.993 29.9815C144.593 30.6498 143.935 31.1878 143.016 31.5955C142.322 31.8825 141.628 32.0561 140.934 32.1166C140.239 32.177 139.209 32.2072 137.843 32.2072V36.5338C137.843 37.3871 137.985 37.9458 138.268 38.2101C138.552 38.4744 139.082 38.6216 139.859 38.6518V39.2408H132.222V38.6518ZM153.184 33.7702L150.989 28.4015H150.799L148.727 33.7702H153.184ZM144.584 38.6518C145.137 38.6141 145.581 38.3611 145.917 37.893C146.133 37.5985 146.443 36.9491 146.846 35.9449L151.941 23.248H152.58L157.697 35.4352C158.272 36.8019 158.701 37.6834 158.985 38.0799C159.268 38.4763 159.672 38.6669 160.194 38.6518V39.2408H152.77V38.6518C153.516 38.6216 154.007 38.5575 154.242 38.4593C154.478 38.3611 154.595 38.112 154.595 37.7118C154.595 37.5305 154.535 37.2549 154.416 36.8849C154.341 36.666 154.241 36.4017 154.114 36.0921L153.531 34.6876H148.38C148.044 35.6088 147.828 36.2091 147.731 36.4885C147.529 37.085 147.428 37.5192 147.428 37.791C147.428 38.1233 147.649 38.3649 148.089 38.5159C148.35 38.599 148.742 38.6443 149.265 38.6518V39.2408H144.584V38.6518ZM161.101 38.6518C161.952 38.6292 162.501 38.465 162.747 38.1592C162.994 37.8533 163.117 37.4022 163.117 36.8057V25.8191C162.415 25.0263 161.982 24.56 161.818 24.4203C161.654 24.2806 161.43 24.1919 161.146 24.1541V23.5652H166.006L173.889 33.3398H174.001V26.4421C174.001 25.6568 173.859 25.0961 173.576 24.7601C173.292 24.4241 172.725 24.2221 171.874 24.1541V23.5652H176.812V24.1541C176.095 24.275 175.616 24.4373 175.373 24.6412C175.13 24.845 175.009 25.3019 175.009 26.0117V39.6712H174.371L164.281 27.2689H164.125V36.3753C164.125 37.085 164.222 37.5872 164.416 37.8817C164.722 38.3574 165.349 38.6141 166.297 38.6518V39.2408H161.101V38.6518ZM177.663 38.6518C178.313 38.6367 178.779 38.5575 179.063 38.414C179.526 38.1724 179.757 37.708 179.757 37.0209V25.7965C179.757 25.1093 179.537 24.6487 179.096 24.4146C178.828 24.2712 178.35 24.1843 177.663 24.1541V23.5652H185.681V24.1541C184.964 24.1843 184.471 24.2674 184.203 24.4033C183.755 24.6374 183.531 25.1018 183.531 25.7965V37.0209C183.531 37.6702 183.71 38.1044 184.068 38.3234C184.427 38.5424 184.964 38.6518 185.681 38.6518V39.2408H177.663V38.6518ZM186.588 39.2408V38.6518C187.245 38.6292 187.711 38.5386 187.988 38.38C188.413 38.1384 188.626 37.6853 188.626 37.0209V25.7965C188.626 25.1169 188.406 24.66 187.965 24.426C187.711 24.2825 187.252 24.1919 186.588 24.1541V23.5652H199.802V28.2429H199.242C198.951 26.7479 198.456 25.7247 197.758 25.1735C197.06 24.6223 195.789 24.3467 193.945 24.3467C193.243 24.3467 192.797 24.4203 192.607 24.5675C192.416 24.7148 192.321 25.0074 192.321 25.4453V30.814C193.628 30.8291 194.512 30.5894 194.975 30.0948C195.438 29.6002 195.793 28.696 196.039 27.3821H196.621V35.22H196.039C195.875 33.8986 195.541 32.9679 195.037 32.428C194.533 31.8881 193.628 31.6182 192.321 31.6182V37.2361C192.321 37.7269 192.446 38.061 192.696 38.2384C192.947 38.4159 193.46 38.5046 194.236 38.5046C195.699 38.5046 196.894 38.2177 197.82 37.6438C198.745 37.0699 199.566 35.9939 200.283 34.4158H200.921L199.992 39.2408H186.588ZM202.31 33.8268H202.971C203.344 35.556 203.947 36.8132 204.779 37.5985C205.611 38.3838 206.565 38.7764 207.64 38.7764C208.685 38.7764 209.428 38.5065 209.869 37.9666C210.309 37.4267 210.529 36.8585 210.529 36.262C210.529 35.5673 210.298 35.001 209.835 34.563C209.529 34.2761 208.913 33.9023 207.987 33.4417L206.498 32.6942C205.02 31.9542 203.978 31.2218 203.374 30.4969C202.769 29.772 202.467 28.8772 202.467 27.8125C202.467 26.6799 202.868 25.6228 203.67 24.6412C204.473 23.6595 205.703 23.1687 207.36 23.1687C208.204 23.1687 209.019 23.2971 209.807 23.5538C210.595 23.8106 211.044 23.9389 211.156 23.9389C211.41 23.9389 211.586 23.8653 211.683 23.7181C211.78 23.5708 211.858 23.3764 211.918 23.1348H212.601V28.1863H211.963C211.657 27.0159 211.117 26.0079 210.344 25.1622C209.572 24.3165 208.633 23.8936 207.528 23.8936C206.752 23.8936 206.138 24.1069 205.686 24.5336C205.234 24.9602 205.009 25.4793 205.009 26.0909C205.009 26.8234 205.221 27.3708 205.647 27.7333C206.065 28.1033 206.994 28.6469 208.435 29.3643L210.16 30.2251C210.929 30.6101 211.541 31.0368 211.996 31.5049C212.847 32.3808 213.273 33.4455 213.273 34.699C213.273 35.8693 212.815 36.9737 211.901 38.0119C210.986 39.0502 209.521 39.5693 207.506 39.5693C207.043 39.5693 206.574 39.5259 206.1 39.439C205.626 39.3522 205.158 39.2182 204.695 39.0369L204.247 38.867C204.143 38.8368 204.042 38.8123 203.945 38.7934C203.848 38.7745 203.766 38.7651 203.698 38.7651C203.46 38.7651 203.295 38.835 203.206 38.9746C203.116 39.1143 203.038 39.3125 202.971 39.5693H202.31V33.8268Z" fill="white"/>
<path d="M57.9265 45.1498H213.956V44.1838H57.9265V45.1498Z" fill="white"/>
</svg>
