<svg xmlns="http://www.w3.org/2000/svg" width="50" height="50" viewBox="0 0 50 50"><g><g><g><path fill="#fff" d="M6.302 25.004a54.337 54.337 0 0 0 3.99 5.64L5.32 33.185C3.232 30.488 1.445 27.736 0 25.005c1.445-2.732 3.232-5.484 5.319-8.181l4.972 2.542a54.36 54.36 0 0 0-3.989 5.638m37.396 0a54.208 54.208 0 0 0-3.99-5.638l4.973-2.541c2.087 2.696 3.873 5.448 5.319 8.18-1.446 2.731-3.232 5.483-5.319 8.18l-4.973-2.542a54.207 54.207 0 0 0 3.99-5.639M25.004 43.7a54.336 54.336 0 0 0 5.639-3.99l2.541 4.972c-2.695 2.087-5.447 3.874-8.18 5.319-2.732-1.445-5.484-3.232-8.18-5.319l2.542-4.973a54.324 54.324 0 0 0 5.638 3.99m0-37.397a54.322 54.322 0 0 0-5.638 3.99L16.824 5.32C19.52 3.232 22.272 1.445 25.004 0c2.733 1.445 5.485 3.232 8.18 5.319l-2.541 4.973a54.384 54.384 0 0 0-5.64-3.99M28.7 28.698l19.109 9.765-9.35 9.354zm-7.398-7.398l-19.109-9.76 9.35-9.349L21.3 21.301m-4.505 16.222l-5.255 10.295-9.349-9.354L21.301 28.7l-4.505 8.824M28.7 21.3l9.76-19.109 9.349 9.35L28.699 21.3"/></g></g></g></svg>