<svg width="234" height="63" viewBox="0 0 234 63" fill="none" xmlns="http://www.w3.org/2000/svg">
<path d="M11.1372 31.2265V21.7896H16.2551V32.6511H13.5056H12.7084C11.9921 32.6511 11.1372 31.9445 11.1372 31.2265Z" fill="white"/>
<path d="M19.3276 32.6511V21.7212H24.4455V32.6511H19.3276Z" fill="white"/>
<path d="M21.1647 40.3557H19.3279H11.5875C6.86251 40.3557 3.00391 36.5376 3.00391 31.8875V21.7212H8.12173V31.8762C8.12173 33.7567 9.69292 35.3067 11.5991 35.3067H13.5053H19.2701H24.4457V40.3557H21.1647Z" fill="white"/>
<path d="M58.3991 40.3101H53.4314L50.1042 28.5823L46.7886 40.3101H41.8209L36.8533 21.6299H41.8209L44.582 34.167L47.8977 21.6299H52.1837L55.638 34.167L58.3991 21.6299H63.2281L58.3991 40.3101ZM72.6204 40.3101V21.6299H77.4494V40.2986H72.6204V40.3101ZM105.222 21.6299V40.2986H100.52L93.4731 28.9926V40.2986H89.0484V21.6299H93.8773L100.925 33.0728V21.6299H105.222ZM116.417 40.3101V21.6299H123.325C130.095 21.6299 133.411 24.7642 133.411 31.0327C133.411 37.3012 130.095 40.4355 123.325 40.4355H116.417V40.3101ZM121.246 36.3552H123.453C126.768 36.3552 128.559 34.5886 128.559 30.9073C128.559 27.3627 126.907 25.4594 123.453 25.4594H121.246V36.3552ZM158.815 21.6299V25.3113H149.007V29.1293H158.122V32.8107H149.007V40.3101H144.178V21.6299H158.815ZM179.264 37.3012H172.216L171.246 40.2986H166.14L173.187 21.6299H178.154L185.478 40.2986H180.372L179.264 37.3012ZM178.016 33.768L175.671 26.5422L173.325 33.768H178.016ZM199.423 21.6299V36.3438H206.886V40.2986H194.594V21.6299H199.423ZM221.662 21.6299V36.3438H229.125V40.2986H216.833V21.6299H221.662Z" fill="white"/>
</svg>
